<?xml version="1.0" encoding="UTF-8"?>
<svg width="1002px" height="1336px" viewBox="0 0 1002 1336" version="1.1" xmlns="http://www.w3.org/2000/svg" xmlns:xlink="http://www.w3.org/1999/xlink">
    <!-- Generator: Sketch 44.1 (41455) - http://www.bohemiancoding.com/sketch -->
    <title>Artboard Copy 71</title>
    <desc>Created with Sketch.</desc>
    <defs></defs>
    <g id="Page-1" stroke="none" stroke-width="1" fill="none" fill-rule="evenodd">
        <g id="Artboard-Copy-71" fill="#222222">
            <path d="M25.608,-0.2 L18.312,-0.2 L18.312,67 L25.032,67 L25.032,13.24 L38.088,47.608 L42.312,47.608 L55.368,13.24 L55.368,67 L62.088,67 L62.088,-0.2 L54.792,-0.2 L40.2,38.2 L25.608,-0.2 Z M85.704,48.856 L80.424,67 L73.032,67 L93.288,-0.2 L102.312,-0.2 L122.568,67 L115.176,67 L109.896,48.856 L85.704,48.856 Z M97.8,6.136 L86.952,43.096 L108.648,43.096 L97.8,6.136 Z M149.448,33.208 L170.376,67 L177.96,67 L153.768,28.024 L177,-0.2 L168.84,-0.2 L139.848,34.552 L139.848,-0.2 L132.84,-0.2 L132.84,67 L139.848,67 L139.848,44.92 L149.448,33.208 Z M232.968,-0.2 L193.032,-0.2 L193.032,67 L232.968,67 L232.968,60.856 L200.04,60.856 L200.04,36.28 L231.048,36.28 L231.048,30.52 L200.04,30.52 L200.04,5.944 L232.968,5.944 L232.968,-0.2 Z M328.488,67.96 C341.736,67.96 351.048,59.8 351.048,48.472 C351.048,24.76 314.28,35.8 314.28,16.888 C314.28,9.4 321.384,4.984 328.488,4.984 C337.416,4.984 342.408,9.976 342.408,16.408 L349.128,16.408 C349.128,5.464 340.776,-1.16 328.488,-1.16 C316.68,-1.16 307.272,6.328 307.272,16.888 C307.272,40.696 344.04,30.712 344.04,48.664 C344.04,56.44 337.704,61.72 328.488,61.72 C318.12,61.72 312.072,56.056 312.072,49.24 L305.352,49.24 C305.352,60.664 314.28,67.96 328.488,67.96 Z M371.88,-0.2 L364.872,-0.2 L364.872,67 L371.88,67 L371.88,36.472 L399.72,36.472 L399.72,67 L406.728,67 L406.728,-0.2 L399.72,-0.2 L399.72,30.328 L371.88,30.328 L371.88,-0.2 Z M439.944,60.856 L421.512,60.856 L421.512,67 L465.288,67 L465.288,60.856 L446.952,60.856 L446.952,5.944 L465.288,5.944 L465.288,-0.2 L421.512,-0.2 L421.512,5.944 L439.944,5.944 L439.944,60.856 Z M479.112,5.56 L497.544,5.56 L497.544,67 L504.552,67 L504.552,5.56 L522.888,5.56 L522.888,-0.2 L479.112,-0.2 L479.112,5.56 Z M600.84,-0.2 L594.312,-0.2 L594.312,67 L601.032,67 L601.032,12.28 L631.56,67 L638.088,67 L638.088,-0.2 L631.368,-0.2 L631.368,54.52 L600.84,-0.2 Z M673.8,67.96 C658.152,67.96 650.76,57.4 650.76,33.4 C650.76,9.4 658.152,-1.16 673.8,-1.16 C689.544,-1.16 696.84,9.304 696.84,33.4 C696.84,57.4 689.544,67.96 673.8,67.96 Z M673.8,61.432 C685.896,61.432 689.832,51.064 689.832,33.4 C689.832,15.736 685.896,5.368 673.8,5.368 C661.8,5.368 657.768,15.736 657.768,33.4 C657.768,51.064 661.8,61.432 673.8,61.432 Z M709.512,5.56 L727.944,5.56 L727.944,67 L734.952,67 L734.952,5.56 L753.288,5.56 L753.288,-0.2 L709.512,-0.2 L709.512,5.56 Z M834.504,48.856 L829.224,67 L821.832,67 L842.088,-0.2 L851.112,-0.2 L871.368,67 L863.976,67 L858.696,48.856 L834.504,48.856 Z M846.6,6.136 L835.752,43.096 L857.448,43.096 L846.6,6.136 Z M899.208,-0.2 C916.104,-0.2 926.088,5.944 926.088,33.4 C926.088,60.952 916.104,67 899.208,67 L882.312,67 L882.312,-0.2 L899.208,-0.2 Z M898.824,60.856 C911.112,60.856 919.08,57.592 919.08,33.4 C919.08,9.304 911.112,5.944 898.824,5.944 L889.32,5.944 L889.32,60.856 L898.824,60.856 Z M962.088,67.96 C975.336,67.96 984.648,59.8 984.648,48.472 C984.648,24.76 947.88,35.8 947.88,16.888 C947.88,9.4 954.984,4.984 962.088,4.984 C971.016,4.984 976.008,9.976 976.008,16.408 L982.728,16.408 C982.728,5.464 974.376,-1.16 962.088,-1.16 C950.28,-1.16 940.872,6.328 940.872,16.888 C940.872,40.696 977.64,30.712 977.64,48.664 C977.64,56.44 971.304,61.72 962.088,61.72 C951.72,61.72 945.672,56.056 945.672,49.24 L938.952,49.24 C938.952,60.664 947.88,67.96 962.088,67.96 Z" id="MAKE-SHIT-NOT-ADS"></path>
            <path d="M25.608,115.163636 L18.312,115.163636 L18.312,182.363636 L25.032,182.363636 L25.032,128.603636 L38.088,162.971636 L42.312,162.971636 L55.368,128.603636 L55.368,182.363636 L62.088,182.363636 L62.088,115.163636 L54.792,115.163636 L40.2,153.563636 L25.608,115.163636 Z M85.704,164.219636 L80.424,182.363636 L73.032,182.363636 L93.288,115.163636 L102.312,115.163636 L122.568,182.363636 L115.176,182.363636 L109.896,164.219636 L85.704,164.219636 Z M97.8,121.499636 L86.952,158.459636 L108.648,158.459636 L97.8,121.499636 Z M149.448,148.571636 L170.376,182.363636 L177.96,182.363636 L153.768,143.387636 L177,115.163636 L168.84,115.163636 L139.848,149.915636 L139.848,115.163636 L132.84,115.163636 L132.84,182.363636 L139.848,182.363636 L139.848,160.283636 L149.448,148.571636 Z M232.968,115.163636 L193.032,115.163636 L193.032,182.363636 L232.968,182.363636 L232.968,176.219636 L200.04,176.219636 L200.04,151.643636 L231.048,151.643636 L231.048,145.883636 L200.04,145.883636 L200.04,121.307636 L232.968,121.307636 L232.968,115.163636 Z M328.488,183.323636 C341.736,183.323636 351.048,175.163636 351.048,163.835636 C351.048,140.123636 314.28,151.163636 314.28,132.251636 C314.28,124.763636 321.384,120.347636 328.488,120.347636 C337.416,120.347636 342.408,125.339636 342.408,131.771636 L349.128,131.771636 C349.128,120.827636 340.776,114.203636 328.488,114.203636 C316.68,114.203636 307.272,121.691636 307.272,132.251636 C307.272,156.059636 344.04,146.075636 344.04,164.027636 C344.04,171.803636 337.704,177.083636 328.488,177.083636 C318.12,177.083636 312.072,171.419636 312.072,164.603636 L305.352,164.603636 C305.352,176.027636 314.28,183.323636 328.488,183.323636 Z M371.88,115.163636 L364.872,115.163636 L364.872,182.363636 L371.88,182.363636 L371.88,151.835636 L399.72,151.835636 L399.72,182.363636 L406.728,182.363636 L406.728,115.163636 L399.72,115.163636 L399.72,145.691636 L371.88,145.691636 L371.88,115.163636 Z M439.944,176.219636 L421.512,176.219636 L421.512,182.363636 L465.288,182.363636 L465.288,176.219636 L446.952,176.219636 L446.952,121.307636 L465.288,121.307636 L465.288,115.163636 L421.512,115.163636 L421.512,121.307636 L439.944,121.307636 L439.944,176.219636 Z M479.112,120.923636 L497.544,120.923636 L497.544,182.363636 L504.552,182.363636 L504.552,120.923636 L522.888,120.923636 L522.888,115.163636 L479.112,115.163636 L479.112,120.923636 Z M600.84,115.163636 L594.312,115.163636 L594.312,182.363636 L601.032,182.363636 L601.032,127.643636 L631.56,182.363636 L638.088,182.363636 L638.088,115.163636 L631.368,115.163636 L631.368,169.883636 L600.84,115.163636 Z M673.8,183.323636 C658.152,183.323636 650.76,172.763636 650.76,148.763636 C650.76,124.763636 658.152,114.203636 673.8,114.203636 C689.544,114.203636 696.84,124.667636 696.84,148.763636 C696.84,172.763636 689.544,183.323636 673.8,183.323636 Z M673.8,176.795636 C685.896,176.795636 689.832,166.427636 689.832,148.763636 C689.832,131.099636 685.896,120.731636 673.8,120.731636 C661.8,120.731636 657.768,131.099636 657.768,148.763636 C657.768,166.427636 661.8,176.795636 673.8,176.795636 Z M709.512,120.923636 L727.944,120.923636 L727.944,182.363636 L734.952,182.363636 L734.952,120.923636 L753.288,120.923636 L753.288,115.163636 L709.512,115.163636 L709.512,120.923636 Z M834.504,164.219636 L829.224,182.363636 L821.832,182.363636 L842.088,115.163636 L851.112,115.163636 L871.368,182.363636 L863.976,182.363636 L858.696,164.219636 L834.504,164.219636 Z M846.6,121.499636 L835.752,158.459636 L857.448,158.459636 L846.6,121.499636 Z M899.208,115.163636 C916.104,115.163636 926.088,121.307636 926.088,148.763636 C926.088,176.315636 916.104,182.363636 899.208,182.363636 L882.312,182.363636 L882.312,115.163636 L899.208,115.163636 Z M898.824,176.219636 C911.112,176.219636 919.08,172.955636 919.08,148.763636 C919.08,124.667636 911.112,121.307636 898.824,121.307636 L889.32,121.307636 L889.32,176.219636 L898.824,176.219636 Z M962.088,183.323636 C975.336,183.323636 984.648,175.163636 984.648,163.835636 C984.648,140.123636 947.88,151.163636 947.88,132.251636 C947.88,124.763636 954.984,120.347636 962.088,120.347636 C971.016,120.347636 976.008,125.339636 976.008,131.771636 L982.728,131.771636 C982.728,120.827636 974.376,114.203636 962.088,114.203636 C950.28,114.203636 940.872,121.691636 940.872,132.251636 C940.872,156.059636 977.64,146.075636 977.64,164.027636 C977.64,171.803636 971.304,177.083636 962.088,177.083636 C951.72,177.083636 945.672,171.419636 945.672,164.603636 L938.952,164.603636 C938.952,176.027636 947.88,183.323636 962.088,183.323636 Z" id="MAKE-SHIT-NOT-ADS-Copy"></path>
            <path d="M25.608,230.527273 L18.312,230.527273 L18.312,297.727273 L25.032,297.727273 L25.032,243.967273 L38.088,278.335273 L42.312,278.335273 L55.368,243.967273 L55.368,297.727273 L62.088,297.727273 L62.088,230.527273 L54.792,230.527273 L40.2,268.927273 L25.608,230.527273 Z M85.704,279.583273 L80.424,297.727273 L73.032,297.727273 L93.288,230.527273 L102.312,230.527273 L122.568,297.727273 L115.176,297.727273 L109.896,279.583273 L85.704,279.583273 Z M97.8,236.863273 L86.952,273.823273 L108.648,273.823273 L97.8,236.863273 Z M149.448,263.935273 L170.376,297.727273 L177.96,297.727273 L153.768,258.751273 L177,230.527273 L168.84,230.527273 L139.848,265.279273 L139.848,230.527273 L132.84,230.527273 L132.84,297.727273 L139.848,297.727273 L139.848,275.647273 L149.448,263.935273 Z M232.968,230.527273 L193.032,230.527273 L193.032,297.727273 L232.968,297.727273 L232.968,291.583273 L200.04,291.583273 L200.04,267.007273 L231.048,267.007273 L231.048,261.247273 L200.04,261.247273 L200.04,236.671273 L232.968,236.671273 L232.968,230.527273 Z M328.488,298.687273 C341.736,298.687273 351.048,290.527273 351.048,279.199273 C351.048,255.487273 314.28,266.527273 314.28,247.615273 C314.28,240.127273 321.384,235.711273 328.488,235.711273 C337.416,235.711273 342.408,240.703273 342.408,247.135273 L349.128,247.135273 C349.128,236.191273 340.776,229.567273 328.488,229.567273 C316.68,229.567273 307.272,237.055273 307.272,247.615273 C307.272,271.423273 344.04,261.439273 344.04,279.391273 C344.04,287.167273 337.704,292.447273 328.488,292.447273 C318.12,292.447273 312.072,286.783273 312.072,279.967273 L305.352,279.967273 C305.352,291.391273 314.28,298.687273 328.488,298.687273 Z M371.88,230.527273 L364.872,230.527273 L364.872,297.727273 L371.88,297.727273 L371.88,267.199273 L399.72,267.199273 L399.72,297.727273 L406.728,297.727273 L406.728,230.527273 L399.72,230.527273 L399.72,261.055273 L371.88,261.055273 L371.88,230.527273 Z M439.944,291.583273 L421.512,291.583273 L421.512,297.727273 L465.288,297.727273 L465.288,291.583273 L446.952,291.583273 L446.952,236.671273 L465.288,236.671273 L465.288,230.527273 L421.512,230.527273 L421.512,236.671273 L439.944,236.671273 L439.944,291.583273 Z M479.112,236.287273 L497.544,236.287273 L497.544,297.727273 L504.552,297.727273 L504.552,236.287273 L522.888,236.287273 L522.888,230.527273 L479.112,230.527273 L479.112,236.287273 Z M600.84,230.527273 L594.312,230.527273 L594.312,297.727273 L601.032,297.727273 L601.032,243.007273 L631.56,297.727273 L638.088,297.727273 L638.088,230.527273 L631.368,230.527273 L631.368,285.247273 L600.84,230.527273 Z M673.8,298.687273 C658.152,298.687273 650.76,288.127273 650.76,264.127273 C650.76,240.127273 658.152,229.567273 673.8,229.567273 C689.544,229.567273 696.84,240.031273 696.84,264.127273 C696.84,288.127273 689.544,298.687273 673.8,298.687273 Z M673.8,292.159273 C685.896,292.159273 689.832,281.791273 689.832,264.127273 C689.832,246.463273 685.896,236.095273 673.8,236.095273 C661.8,236.095273 657.768,246.463273 657.768,264.127273 C657.768,281.791273 661.8,292.159273 673.8,292.159273 Z M709.512,236.287273 L727.944,236.287273 L727.944,297.727273 L734.952,297.727273 L734.952,236.287273 L753.288,236.287273 L753.288,230.527273 L709.512,230.527273 L709.512,236.287273 Z M834.504,279.583273 L829.224,297.727273 L821.832,297.727273 L842.088,230.527273 L851.112,230.527273 L871.368,297.727273 L863.976,297.727273 L858.696,279.583273 L834.504,279.583273 Z M846.6,236.863273 L835.752,273.823273 L857.448,273.823273 L846.6,236.863273 Z M899.208,230.527273 C916.104,230.527273 926.088,236.671273 926.088,264.127273 C926.088,291.679273 916.104,297.727273 899.208,297.727273 L882.312,297.727273 L882.312,230.527273 L899.208,230.527273 Z M898.824,291.583273 C911.112,291.583273 919.08,288.319273 919.08,264.127273 C919.08,240.031273 911.112,236.671273 898.824,236.671273 L889.32,236.671273 L889.32,291.583273 L898.824,291.583273 Z M962.088,298.687273 C975.336,298.687273 984.648,290.527273 984.648,279.199273 C984.648,255.487273 947.88,266.527273 947.88,247.615273 C947.88,240.127273 954.984,235.711273 962.088,235.711273 C971.016,235.711273 976.008,240.703273 976.008,247.135273 L982.728,247.135273 C982.728,236.191273 974.376,229.567273 962.088,229.567273 C950.28,229.567273 940.872,237.055273 940.872,247.615273 C940.872,271.423273 977.64,261.439273 977.64,279.391273 C977.64,287.167273 971.304,292.447273 962.088,292.447273 C951.72,292.447273 945.672,286.783273 945.672,279.967273 L938.952,279.967273 C938.952,291.391273 947.88,298.687273 962.088,298.687273 Z" id="MAKE-SHIT-NOT-ADS-Copy-2"></path>
            <path d="M25.608,345.890909 L18.312,345.890909 L18.312,413.090909 L25.032,413.090909 L25.032,359.330909 L38.088,393.698909 L42.312,393.698909 L55.368,359.330909 L55.368,413.090909 L62.088,413.090909 L62.088,345.890909 L54.792,345.890909 L40.2,384.290909 L25.608,345.890909 Z M85.704,394.946909 L80.424,413.090909 L73.032,413.090909 L93.288,345.890909 L102.312,345.890909 L122.568,413.090909 L115.176,413.090909 L109.896,394.946909 L85.704,394.946909 Z M97.8,352.226909 L86.952,389.186909 L108.648,389.186909 L97.8,352.226909 Z M149.448,379.298909 L170.376,413.090909 L177.96,413.090909 L153.768,374.114909 L177,345.890909 L168.84,345.890909 L139.848,380.642909 L139.848,345.890909 L132.84,345.890909 L132.84,413.090909 L139.848,413.090909 L139.848,391.010909 L149.448,379.298909 Z M232.968,345.890909 L193.032,345.890909 L193.032,413.090909 L232.968,413.090909 L232.968,406.946909 L200.04,406.946909 L200.04,382.370909 L231.048,382.370909 L231.048,376.610909 L200.04,376.610909 L200.04,352.034909 L232.968,352.034909 L232.968,345.890909 Z M328.488,414.050909 C341.736,414.050909 351.048,405.890909 351.048,394.562909 C351.048,370.850909 314.28,381.890909 314.28,362.978909 C314.28,355.490909 321.384,351.074909 328.488,351.074909 C337.416,351.074909 342.408,356.066909 342.408,362.498909 L349.128,362.498909 C349.128,351.554909 340.776,344.930909 328.488,344.930909 C316.68,344.930909 307.272,352.418909 307.272,362.978909 C307.272,386.786909 344.04,376.802909 344.04,394.754909 C344.04,402.530909 337.704,407.810909 328.488,407.810909 C318.12,407.810909 312.072,402.146909 312.072,395.330909 L305.352,395.330909 C305.352,406.754909 314.28,414.050909 328.488,414.050909 Z M371.88,345.890909 L364.872,345.890909 L364.872,413.090909 L371.88,413.090909 L371.88,382.562909 L399.72,382.562909 L399.72,413.090909 L406.728,413.090909 L406.728,345.890909 L399.72,345.890909 L399.72,376.418909 L371.88,376.418909 L371.88,345.890909 Z M439.944,406.946909 L421.512,406.946909 L421.512,413.090909 L465.288,413.090909 L465.288,406.946909 L446.952,406.946909 L446.952,352.034909 L465.288,352.034909 L465.288,345.890909 L421.512,345.890909 L421.512,352.034909 L439.944,352.034909 L439.944,406.946909 Z M479.112,351.650909 L497.544,351.650909 L497.544,413.090909 L504.552,413.090909 L504.552,351.650909 L522.888,351.650909 L522.888,345.890909 L479.112,345.890909 L479.112,351.650909 Z M600.84,345.890909 L594.312,345.890909 L594.312,413.090909 L601.032,413.090909 L601.032,358.370909 L631.56,413.090909 L638.088,413.090909 L638.088,345.890909 L631.368,345.890909 L631.368,400.610909 L600.84,345.890909 Z M673.8,414.050909 C658.152,414.050909 650.76,403.490909 650.76,379.490909 C650.76,355.490909 658.152,344.930909 673.8,344.930909 C689.544,344.930909 696.84,355.394909 696.84,379.490909 C696.84,403.490909 689.544,414.050909 673.8,414.050909 Z M673.8,407.522909 C685.896,407.522909 689.832,397.154909 689.832,379.490909 C689.832,361.826909 685.896,351.458909 673.8,351.458909 C661.8,351.458909 657.768,361.826909 657.768,379.490909 C657.768,397.154909 661.8,407.522909 673.8,407.522909 Z M709.512,351.650909 L727.944,351.650909 L727.944,413.090909 L734.952,413.090909 L734.952,351.650909 L753.288,351.650909 L753.288,345.890909 L709.512,345.890909 L709.512,351.650909 Z M834.504,394.946909 L829.224,413.090909 L821.832,413.090909 L842.088,345.890909 L851.112,345.890909 L871.368,413.090909 L863.976,413.090909 L858.696,394.946909 L834.504,394.946909 Z M846.6,352.226909 L835.752,389.186909 L857.448,389.186909 L846.6,352.226909 Z M899.208,345.890909 C916.104,345.890909 926.088,352.034909 926.088,379.490909 C926.088,407.042909 916.104,413.090909 899.208,413.090909 L882.312,413.090909 L882.312,345.890909 L899.208,345.890909 Z M898.824,406.946909 C911.112,406.946909 919.08,403.682909 919.08,379.490909 C919.08,355.394909 911.112,352.034909 898.824,352.034909 L889.32,352.034909 L889.32,406.946909 L898.824,406.946909 Z M962.088,414.050909 C975.336,414.050909 984.648,405.890909 984.648,394.562909 C984.648,370.850909 947.88,381.890909 947.88,362.978909 C947.88,355.490909 954.984,351.074909 962.088,351.074909 C971.016,351.074909 976.008,356.066909 976.008,362.498909 L982.728,362.498909 C982.728,351.554909 974.376,344.930909 962.088,344.930909 C950.28,344.930909 940.872,352.418909 940.872,362.978909 C940.872,386.786909 977.64,376.802909 977.64,394.754909 C977.64,402.530909 971.304,407.810909 962.088,407.810909 C951.72,407.810909 945.672,402.146909 945.672,395.330909 L938.952,395.330909 C938.952,406.754909 947.88,414.050909 962.088,414.050909 Z" id="MAKE-SHIT-NOT-ADS-Copy-3"></path>
            <path d="M25.608,461.254545 L18.312,461.254545 L18.312,528.454545 L25.032,528.454545 L25.032,474.694545 L38.088,509.062545 L42.312,509.062545 L55.368,474.694545 L55.368,528.454545 L62.088,528.454545 L62.088,461.254545 L54.792,461.254545 L40.2,499.654545 L25.608,461.254545 Z M85.704,510.310545 L80.424,528.454545 L73.032,528.454545 L93.288,461.254545 L102.312,461.254545 L122.568,528.454545 L115.176,528.454545 L109.896,510.310545 L85.704,510.310545 Z M97.8,467.590545 L86.952,504.550545 L108.648,504.550545 L97.8,467.590545 Z M149.448,494.662545 L170.376,528.454545 L177.96,528.454545 L153.768,489.478545 L177,461.254545 L168.84,461.254545 L139.848,496.006545 L139.848,461.254545 L132.84,461.254545 L132.84,528.454545 L139.848,528.454545 L139.848,506.374545 L149.448,494.662545 Z M232.968,461.254545 L193.032,461.254545 L193.032,528.454545 L232.968,528.454545 L232.968,522.310545 L200.04,522.310545 L200.04,497.734545 L231.048,497.734545 L231.048,491.974545 L200.04,491.974545 L200.04,467.398545 L232.968,467.398545 L232.968,461.254545 Z M328.488,529.414545 C341.736,529.414545 351.048,521.254545 351.048,509.926545 C351.048,486.214545 314.28,497.254545 314.28,478.342545 C314.28,470.854545 321.384,466.438545 328.488,466.438545 C337.416,466.438545 342.408,471.430545 342.408,477.862545 L349.128,477.862545 C349.128,466.918545 340.776,460.294545 328.488,460.294545 C316.68,460.294545 307.272,467.782545 307.272,478.342545 C307.272,502.150545 344.04,492.166545 344.04,510.118545 C344.04,517.894545 337.704,523.174545 328.488,523.174545 C318.12,523.174545 312.072,517.510545 312.072,510.694545 L305.352,510.694545 C305.352,522.118545 314.28,529.414545 328.488,529.414545 Z M371.88,461.254545 L364.872,461.254545 L364.872,528.454545 L371.88,528.454545 L371.88,497.926545 L399.72,497.926545 L399.72,528.454545 L406.728,528.454545 L406.728,461.254545 L399.72,461.254545 L399.72,491.782545 L371.88,491.782545 L371.88,461.254545 Z M439.944,522.310545 L421.512,522.310545 L421.512,528.454545 L465.288,528.454545 L465.288,522.310545 L446.952,522.310545 L446.952,467.398545 L465.288,467.398545 L465.288,461.254545 L421.512,461.254545 L421.512,467.398545 L439.944,467.398545 L439.944,522.310545 Z M479.112,467.014545 L497.544,467.014545 L497.544,528.454545 L504.552,528.454545 L504.552,467.014545 L522.888,467.014545 L522.888,461.254545 L479.112,461.254545 L479.112,467.014545 Z M600.84,461.254545 L594.312,461.254545 L594.312,528.454545 L601.032,528.454545 L601.032,473.734545 L631.56,528.454545 L638.088,528.454545 L638.088,461.254545 L631.368,461.254545 L631.368,515.974545 L600.84,461.254545 Z M673.8,529.414545 C658.152,529.414545 650.76,518.854545 650.76,494.854545 C650.76,470.854545 658.152,460.294545 673.8,460.294545 C689.544,460.294545 696.84,470.758545 696.84,494.854545 C696.84,518.854545 689.544,529.414545 673.8,529.414545 Z M673.8,522.886545 C685.896,522.886545 689.832,512.518545 689.832,494.854545 C689.832,477.190545 685.896,466.822545 673.8,466.822545 C661.8,466.822545 657.768,477.190545 657.768,494.854545 C657.768,512.518545 661.8,522.886545 673.8,522.886545 Z M709.512,467.014545 L727.944,467.014545 L727.944,528.454545 L734.952,528.454545 L734.952,467.014545 L753.288,467.014545 L753.288,461.254545 L709.512,461.254545 L709.512,467.014545 Z M834.504,510.310545 L829.224,528.454545 L821.832,528.454545 L842.088,461.254545 L851.112,461.254545 L871.368,528.454545 L863.976,528.454545 L858.696,510.310545 L834.504,510.310545 Z M846.6,467.590545 L835.752,504.550545 L857.448,504.550545 L846.6,467.590545 Z M899.208,461.254545 C916.104,461.254545 926.088,467.398545 926.088,494.854545 C926.088,522.406545 916.104,528.454545 899.208,528.454545 L882.312,528.454545 L882.312,461.254545 L899.208,461.254545 Z M898.824,522.310545 C911.112,522.310545 919.08,519.046545 919.08,494.854545 C919.08,470.758545 911.112,467.398545 898.824,467.398545 L889.32,467.398545 L889.32,522.310545 L898.824,522.310545 Z M962.088,529.414545 C975.336,529.414545 984.648,521.254545 984.648,509.926545 C984.648,486.214545 947.88,497.254545 947.88,478.342545 C947.88,470.854545 954.984,466.438545 962.088,466.438545 C971.016,466.438545 976.008,471.430545 976.008,477.862545 L982.728,477.862545 C982.728,466.918545 974.376,460.294545 962.088,460.294545 C950.28,460.294545 940.872,467.782545 940.872,478.342545 C940.872,502.150545 977.64,492.166545 977.64,510.118545 C977.64,517.894545 971.304,523.174545 962.088,523.174545 C951.72,523.174545 945.672,517.510545 945.672,510.694545 L938.952,510.694545 C938.952,522.118545 947.88,529.414545 962.088,529.414545 Z" id="MAKE-SHIT-NOT-ADS-Copy-4"></path>
            <path d="M25.608,576.618182 L18.312,576.618182 L18.312,643.818182 L25.032,643.818182 L25.032,590.058182 L38.088,624.426182 L42.312,624.426182 L55.368,590.058182 L55.368,643.818182 L62.088,643.818182 L62.088,576.618182 L54.792,576.618182 L40.2,615.018182 L25.608,576.618182 Z M85.704,625.674182 L80.424,643.818182 L73.032,643.818182 L93.288,576.618182 L102.312,576.618182 L122.568,643.818182 L115.176,643.818182 L109.896,625.674182 L85.704,625.674182 Z M97.8,582.954182 L86.952,619.914182 L108.648,619.914182 L97.8,582.954182 Z M149.448,610.026182 L170.376,643.818182 L177.96,643.818182 L153.768,604.842182 L177,576.618182 L168.84,576.618182 L139.848,611.370182 L139.848,576.618182 L132.84,576.618182 L132.84,643.818182 L139.848,643.818182 L139.848,621.738182 L149.448,610.026182 Z M232.968,576.618182 L193.032,576.618182 L193.032,643.818182 L232.968,643.818182 L232.968,637.674182 L200.04,637.674182 L200.04,613.098182 L231.048,613.098182 L231.048,607.338182 L200.04,607.338182 L200.04,582.762182 L232.968,582.762182 L232.968,576.618182 Z M328.488,644.778182 C341.736,644.778182 351.048,636.618182 351.048,625.290182 C351.048,601.578182 314.28,612.618182 314.28,593.706182 C314.28,586.218182 321.384,581.802182 328.488,581.802182 C337.416,581.802182 342.408,586.794182 342.408,593.226182 L349.128,593.226182 C349.128,582.282182 340.776,575.658182 328.488,575.658182 C316.68,575.658182 307.272,583.146182 307.272,593.706182 C307.272,617.514182 344.04,607.530182 344.04,625.482182 C344.04,633.258182 337.704,638.538182 328.488,638.538182 C318.12,638.538182 312.072,632.874182 312.072,626.058182 L305.352,626.058182 C305.352,637.482182 314.28,644.778182 328.488,644.778182 Z M371.88,576.618182 L364.872,576.618182 L364.872,643.818182 L371.88,643.818182 L371.88,613.290182 L399.72,613.290182 L399.72,643.818182 L406.728,643.818182 L406.728,576.618182 L399.72,576.618182 L399.72,607.146182 L371.88,607.146182 L371.88,576.618182 Z M439.944,637.674182 L421.512,637.674182 L421.512,643.818182 L465.288,643.818182 L465.288,637.674182 L446.952,637.674182 L446.952,582.762182 L465.288,582.762182 L465.288,576.618182 L421.512,576.618182 L421.512,582.762182 L439.944,582.762182 L439.944,637.674182 Z M479.112,582.378182 L497.544,582.378182 L497.544,643.818182 L504.552,643.818182 L504.552,582.378182 L522.888,582.378182 L522.888,576.618182 L479.112,576.618182 L479.112,582.378182 Z M600.84,576.618182 L594.312,576.618182 L594.312,643.818182 L601.032,643.818182 L601.032,589.098182 L631.56,643.818182 L638.088,643.818182 L638.088,576.618182 L631.368,576.618182 L631.368,631.338182 L600.84,576.618182 Z M673.8,644.778182 C658.152,644.778182 650.76,634.218182 650.76,610.218182 C650.76,586.218182 658.152,575.658182 673.8,575.658182 C689.544,575.658182 696.84,586.122182 696.84,610.218182 C696.84,634.218182 689.544,644.778182 673.8,644.778182 Z M673.8,638.250182 C685.896,638.250182 689.832,627.882182 689.832,610.218182 C689.832,592.554182 685.896,582.186182 673.8,582.186182 C661.8,582.186182 657.768,592.554182 657.768,610.218182 C657.768,627.882182 661.8,638.250182 673.8,638.250182 Z M709.512,582.378182 L727.944,582.378182 L727.944,643.818182 L734.952,643.818182 L734.952,582.378182 L753.288,582.378182 L753.288,576.618182 L709.512,576.618182 L709.512,582.378182 Z M834.504,625.674182 L829.224,643.818182 L821.832,643.818182 L842.088,576.618182 L851.112,576.618182 L871.368,643.818182 L863.976,643.818182 L858.696,625.674182 L834.504,625.674182 Z M846.6,582.954182 L835.752,619.914182 L857.448,619.914182 L846.6,582.954182 Z M899.208,576.618182 C916.104,576.618182 926.088,582.762182 926.088,610.218182 C926.088,637.770182 916.104,643.818182 899.208,643.818182 L882.312,643.818182 L882.312,576.618182 L899.208,576.618182 Z M898.824,637.674182 C911.112,637.674182 919.08,634.410182 919.08,610.218182 C919.08,586.122182 911.112,582.762182 898.824,582.762182 L889.32,582.762182 L889.32,637.674182 L898.824,637.674182 Z M962.088,644.778182 C975.336,644.778182 984.648,636.618182 984.648,625.290182 C984.648,601.578182 947.88,612.618182 947.88,593.706182 C947.88,586.218182 954.984,581.802182 962.088,581.802182 C971.016,581.802182 976.008,586.794182 976.008,593.226182 L982.728,593.226182 C982.728,582.282182 974.376,575.658182 962.088,575.658182 C950.28,575.658182 940.872,583.146182 940.872,593.706182 C940.872,617.514182 977.64,607.530182 977.64,625.482182 C977.64,633.258182 971.304,638.538182 962.088,638.538182 C951.72,638.538182 945.672,632.874182 945.672,626.058182 L938.952,626.058182 C938.952,637.482182 947.88,644.778182 962.088,644.778182 Z" id="MAKE-SHIT-NOT-ADS-Copy-5"></path>
            <path d="M25.608,691.981818 L18.312,691.981818 L18.312,759.181818 L25.032,759.181818 L25.032,705.421818 L38.088,739.789818 L42.312,739.789818 L55.368,705.421818 L55.368,759.181818 L62.088,759.181818 L62.088,691.981818 L54.792,691.981818 L40.2,730.381818 L25.608,691.981818 Z M85.704,741.037818 L80.424,759.181818 L73.032,759.181818 L93.288,691.981818 L102.312,691.981818 L122.568,759.181818 L115.176,759.181818 L109.896,741.037818 L85.704,741.037818 Z M97.8,698.317818 L86.952,735.277818 L108.648,735.277818 L97.8,698.317818 Z M149.448,725.389818 L170.376,759.181818 L177.96,759.181818 L153.768,720.205818 L177,691.981818 L168.84,691.981818 L139.848,726.733818 L139.848,691.981818 L132.84,691.981818 L132.84,759.181818 L139.848,759.181818 L139.848,737.101818 L149.448,725.389818 Z M232.968,691.981818 L193.032,691.981818 L193.032,759.181818 L232.968,759.181818 L232.968,753.037818 L200.04,753.037818 L200.04,728.461818 L231.048,728.461818 L231.048,722.701818 L200.04,722.701818 L200.04,698.125818 L232.968,698.125818 L232.968,691.981818 Z M328.488,760.141818 C341.736,760.141818 351.048,751.981818 351.048,740.653818 C351.048,716.941818 314.28,727.981818 314.28,709.069818 C314.28,701.581818 321.384,697.165818 328.488,697.165818 C337.416,697.165818 342.408,702.157818 342.408,708.589818 L349.128,708.589818 C349.128,697.645818 340.776,691.021818 328.488,691.021818 C316.68,691.021818 307.272,698.509818 307.272,709.069818 C307.272,732.877818 344.04,722.893818 344.04,740.845818 C344.04,748.621818 337.704,753.901818 328.488,753.901818 C318.12,753.901818 312.072,748.237818 312.072,741.421818 L305.352,741.421818 C305.352,752.845818 314.28,760.141818 328.488,760.141818 Z M371.88,691.981818 L364.872,691.981818 L364.872,759.181818 L371.88,759.181818 L371.88,728.653818 L399.72,728.653818 L399.72,759.181818 L406.728,759.181818 L406.728,691.981818 L399.72,691.981818 L399.72,722.509818 L371.88,722.509818 L371.88,691.981818 Z M439.944,753.037818 L421.512,753.037818 L421.512,759.181818 L465.288,759.181818 L465.288,753.037818 L446.952,753.037818 L446.952,698.125818 L465.288,698.125818 L465.288,691.981818 L421.512,691.981818 L421.512,698.125818 L439.944,698.125818 L439.944,753.037818 Z M479.112,697.741818 L497.544,697.741818 L497.544,759.181818 L504.552,759.181818 L504.552,697.741818 L522.888,697.741818 L522.888,691.981818 L479.112,691.981818 L479.112,697.741818 Z M600.84,691.981818 L594.312,691.981818 L594.312,759.181818 L601.032,759.181818 L601.032,704.461818 L631.56,759.181818 L638.088,759.181818 L638.088,691.981818 L631.368,691.981818 L631.368,746.701818 L600.84,691.981818 Z M673.8,760.141818 C658.152,760.141818 650.76,749.581818 650.76,725.581818 C650.76,701.581818 658.152,691.021818 673.8,691.021818 C689.544,691.021818 696.84,701.485818 696.84,725.581818 C696.84,749.581818 689.544,760.141818 673.8,760.141818 Z M673.8,753.613818 C685.896,753.613818 689.832,743.245818 689.832,725.581818 C689.832,707.917818 685.896,697.549818 673.8,697.549818 C661.8,697.549818 657.768,707.917818 657.768,725.581818 C657.768,743.245818 661.8,753.613818 673.8,753.613818 Z M709.512,697.741818 L727.944,697.741818 L727.944,759.181818 L734.952,759.181818 L734.952,697.741818 L753.288,697.741818 L753.288,691.981818 L709.512,691.981818 L709.512,697.741818 Z M834.504,741.037818 L829.224,759.181818 L821.832,759.181818 L842.088,691.981818 L851.112,691.981818 L871.368,759.181818 L863.976,759.181818 L858.696,741.037818 L834.504,741.037818 Z M846.6,698.317818 L835.752,735.277818 L857.448,735.277818 L846.6,698.317818 Z M899.208,691.981818 C916.104,691.981818 926.088,698.125818 926.088,725.581818 C926.088,753.133818 916.104,759.181818 899.208,759.181818 L882.312,759.181818 L882.312,691.981818 L899.208,691.981818 Z M898.824,753.037818 C911.112,753.037818 919.08,749.773818 919.08,725.581818 C919.08,701.485818 911.112,698.125818 898.824,698.125818 L889.32,698.125818 L889.32,753.037818 L898.824,753.037818 Z M962.088,760.141818 C975.336,760.141818 984.648,751.981818 984.648,740.653818 C984.648,716.941818 947.88,727.981818 947.88,709.069818 C947.88,701.581818 954.984,697.165818 962.088,697.165818 C971.016,697.165818 976.008,702.157818 976.008,708.589818 L982.728,708.589818 C982.728,697.645818 974.376,691.021818 962.088,691.021818 C950.28,691.021818 940.872,698.509818 940.872,709.069818 C940.872,732.877818 977.64,722.893818 977.64,740.845818 C977.64,748.621818 971.304,753.901818 962.088,753.901818 C951.72,753.901818 945.672,748.237818 945.672,741.421818 L938.952,741.421818 C938.952,752.845818 947.88,760.141818 962.088,760.141818 Z" id="MAKE-SHIT-NOT-ADS-Copy-6"></path>
            <path d="M25.608,807.345455 L18.312,807.345455 L18.312,874.545455 L25.032,874.545455 L25.032,820.785455 L38.088,855.153455 L42.312,855.153455 L55.368,820.785455 L55.368,874.545455 L62.088,874.545455 L62.088,807.345455 L54.792,807.345455 L40.2,845.745455 L25.608,807.345455 Z M85.704,856.401455 L80.424,874.545455 L73.032,874.545455 L93.288,807.345455 L102.312,807.345455 L122.568,874.545455 L115.176,874.545455 L109.896,856.401455 L85.704,856.401455 Z M97.8,813.681455 L86.952,850.641455 L108.648,850.641455 L97.8,813.681455 Z M149.448,840.753455 L170.376,874.545455 L177.96,874.545455 L153.768,835.569455 L177,807.345455 L168.84,807.345455 L139.848,842.097455 L139.848,807.345455 L132.84,807.345455 L132.84,874.545455 L139.848,874.545455 L139.848,852.465455 L149.448,840.753455 Z M232.968,807.345455 L193.032,807.345455 L193.032,874.545455 L232.968,874.545455 L232.968,868.401455 L200.04,868.401455 L200.04,843.825455 L231.048,843.825455 L231.048,838.065455 L200.04,838.065455 L200.04,813.489455 L232.968,813.489455 L232.968,807.345455 Z M328.488,875.505455 C341.736,875.505455 351.048,867.345455 351.048,856.017455 C351.048,832.305455 314.28,843.345455 314.28,824.433455 C314.28,816.945455 321.384,812.529455 328.488,812.529455 C337.416,812.529455 342.408,817.521455 342.408,823.953455 L349.128,823.953455 C349.128,813.009455 340.776,806.385455 328.488,806.385455 C316.68,806.385455 307.272,813.873455 307.272,824.433455 C307.272,848.241455 344.04,838.257455 344.04,856.209455 C344.04,863.985455 337.704,869.265455 328.488,869.265455 C318.12,869.265455 312.072,863.601455 312.072,856.785455 L305.352,856.785455 C305.352,868.209455 314.28,875.505455 328.488,875.505455 Z M371.88,807.345455 L364.872,807.345455 L364.872,874.545455 L371.88,874.545455 L371.88,844.017455 L399.72,844.017455 L399.72,874.545455 L406.728,874.545455 L406.728,807.345455 L399.72,807.345455 L399.72,837.873455 L371.88,837.873455 L371.88,807.345455 Z M439.944,868.401455 L421.512,868.401455 L421.512,874.545455 L465.288,874.545455 L465.288,868.401455 L446.952,868.401455 L446.952,813.489455 L465.288,813.489455 L465.288,807.345455 L421.512,807.345455 L421.512,813.489455 L439.944,813.489455 L439.944,868.401455 Z M479.112,813.105455 L497.544,813.105455 L497.544,874.545455 L504.552,874.545455 L504.552,813.105455 L522.888,813.105455 L522.888,807.345455 L479.112,807.345455 L479.112,813.105455 Z M600.84,807.345455 L594.312,807.345455 L594.312,874.545455 L601.032,874.545455 L601.032,819.825455 L631.56,874.545455 L638.088,874.545455 L638.088,807.345455 L631.368,807.345455 L631.368,862.065455 L600.84,807.345455 Z M673.8,875.505455 C658.152,875.505455 650.76,864.945455 650.76,840.945455 C650.76,816.945455 658.152,806.385455 673.8,806.385455 C689.544,806.385455 696.84,816.849455 696.84,840.945455 C696.84,864.945455 689.544,875.505455 673.8,875.505455 Z M673.8,868.977455 C685.896,868.977455 689.832,858.609455 689.832,840.945455 C689.832,823.281455 685.896,812.913455 673.8,812.913455 C661.8,812.913455 657.768,823.281455 657.768,840.945455 C657.768,858.609455 661.8,868.977455 673.8,868.977455 Z M709.512,813.105455 L727.944,813.105455 L727.944,874.545455 L734.952,874.545455 L734.952,813.105455 L753.288,813.105455 L753.288,807.345455 L709.512,807.345455 L709.512,813.105455 Z M834.504,856.401455 L829.224,874.545455 L821.832,874.545455 L842.088,807.345455 L851.112,807.345455 L871.368,874.545455 L863.976,874.545455 L858.696,856.401455 L834.504,856.401455 Z M846.6,813.681455 L835.752,850.641455 L857.448,850.641455 L846.6,813.681455 Z M899.208,807.345455 C916.104,807.345455 926.088,813.489455 926.088,840.945455 C926.088,868.497455 916.104,874.545455 899.208,874.545455 L882.312,874.545455 L882.312,807.345455 L899.208,807.345455 Z M898.824,868.401455 C911.112,868.401455 919.08,865.137455 919.08,840.945455 C919.08,816.849455 911.112,813.489455 898.824,813.489455 L889.32,813.489455 L889.32,868.401455 L898.824,868.401455 Z M962.088,875.505455 C975.336,875.505455 984.648,867.345455 984.648,856.017455 C984.648,832.305455 947.88,843.345455 947.88,824.433455 C947.88,816.945455 954.984,812.529455 962.088,812.529455 C971.016,812.529455 976.008,817.521455 976.008,823.953455 L982.728,823.953455 C982.728,813.009455 974.376,806.385455 962.088,806.385455 C950.28,806.385455 940.872,813.873455 940.872,824.433455 C940.872,848.241455 977.64,838.257455 977.64,856.209455 C977.64,863.985455 971.304,869.265455 962.088,869.265455 C951.72,869.265455 945.672,863.601455 945.672,856.785455 L938.952,856.785455 C938.952,868.209455 947.88,875.505455 962.088,875.505455 Z" id="MAKE-SHIT-NOT-ADS-Copy-7"></path>
            <path d="M25.608,922.709091 L18.312,922.709091 L18.312,989.909091 L25.032,989.909091 L25.032,936.149091 L38.088,970.517091 L42.312,970.517091 L55.368,936.149091 L55.368,989.909091 L62.088,989.909091 L62.088,922.709091 L54.792,922.709091 L40.2,961.109091 L25.608,922.709091 Z M85.704,971.765091 L80.424,989.909091 L73.032,989.909091 L93.288,922.709091 L102.312,922.709091 L122.568,989.909091 L115.176,989.909091 L109.896,971.765091 L85.704,971.765091 Z M97.8,929.045091 L86.952,966.005091 L108.648,966.005091 L97.8,929.045091 Z M149.448,956.117091 L170.376,989.909091 L177.96,989.909091 L153.768,950.933091 L177,922.709091 L168.84,922.709091 L139.848,957.461091 L139.848,922.709091 L132.84,922.709091 L132.84,989.909091 L139.848,989.909091 L139.848,967.829091 L149.448,956.117091 Z M232.968,922.709091 L193.032,922.709091 L193.032,989.909091 L232.968,989.909091 L232.968,983.765091 L200.04,983.765091 L200.04,959.189091 L231.048,959.189091 L231.048,953.429091 L200.04,953.429091 L200.04,928.853091 L232.968,928.853091 L232.968,922.709091 Z M328.488,990.869091 C341.736,990.869091 351.048,982.709091 351.048,971.381091 C351.048,947.669091 314.28,958.709091 314.28,939.797091 C314.28,932.309091 321.384,927.893091 328.488,927.893091 C337.416,927.893091 342.408,932.885091 342.408,939.317091 L349.128,939.317091 C349.128,928.373091 340.776,921.749091 328.488,921.749091 C316.68,921.749091 307.272,929.237091 307.272,939.797091 C307.272,963.605091 344.04,953.621091 344.04,971.573091 C344.04,979.349091 337.704,984.629091 328.488,984.629091 C318.12,984.629091 312.072,978.965091 312.072,972.149091 L305.352,972.149091 C305.352,983.573091 314.28,990.869091 328.488,990.869091 Z M371.88,922.709091 L364.872,922.709091 L364.872,989.909091 L371.88,989.909091 L371.88,959.381091 L399.72,959.381091 L399.72,989.909091 L406.728,989.909091 L406.728,922.709091 L399.72,922.709091 L399.72,953.237091 L371.88,953.237091 L371.88,922.709091 Z M439.944,983.765091 L421.512,983.765091 L421.512,989.909091 L465.288,989.909091 L465.288,983.765091 L446.952,983.765091 L446.952,928.853091 L465.288,928.853091 L465.288,922.709091 L421.512,922.709091 L421.512,928.853091 L439.944,928.853091 L439.944,983.765091 Z M479.112,928.469091 L497.544,928.469091 L497.544,989.909091 L504.552,989.909091 L504.552,928.469091 L522.888,928.469091 L522.888,922.709091 L479.112,922.709091 L479.112,928.469091 Z M600.84,922.709091 L594.312,922.709091 L594.312,989.909091 L601.032,989.909091 L601.032,935.189091 L631.56,989.909091 L638.088,989.909091 L638.088,922.709091 L631.368,922.709091 L631.368,977.429091 L600.84,922.709091 Z M673.8,990.869091 C658.152,990.869091 650.76,980.309091 650.76,956.309091 C650.76,932.309091 658.152,921.749091 673.8,921.749091 C689.544,921.749091 696.84,932.213091 696.84,956.309091 C696.84,980.309091 689.544,990.869091 673.8,990.869091 Z M673.8,984.341091 C685.896,984.341091 689.832,973.973091 689.832,956.309091 C689.832,938.645091 685.896,928.277091 673.8,928.277091 C661.8,928.277091 657.768,938.645091 657.768,956.309091 C657.768,973.973091 661.8,984.341091 673.8,984.341091 Z M709.512,928.469091 L727.944,928.469091 L727.944,989.909091 L734.952,989.909091 L734.952,928.469091 L753.288,928.469091 L753.288,922.709091 L709.512,922.709091 L709.512,928.469091 Z M834.504,971.765091 L829.224,989.909091 L821.832,989.909091 L842.088,922.709091 L851.112,922.709091 L871.368,989.909091 L863.976,989.909091 L858.696,971.765091 L834.504,971.765091 Z M846.6,929.045091 L835.752,966.005091 L857.448,966.005091 L846.6,929.045091 Z M899.208,922.709091 C916.104,922.709091 926.088,928.853091 926.088,956.309091 C926.088,983.861091 916.104,989.909091 899.208,989.909091 L882.312,989.909091 L882.312,922.709091 L899.208,922.709091 Z M898.824,983.765091 C911.112,983.765091 919.08,980.501091 919.08,956.309091 C919.08,932.213091 911.112,928.853091 898.824,928.853091 L889.32,928.853091 L889.32,983.765091 L898.824,983.765091 Z M962.088,990.869091 C975.336,990.869091 984.648,982.709091 984.648,971.381091 C984.648,947.669091 947.88,958.709091 947.88,939.797091 C947.88,932.309091 954.984,927.893091 962.088,927.893091 C971.016,927.893091 976.008,932.885091 976.008,939.317091 L982.728,939.317091 C982.728,928.373091 974.376,921.749091 962.088,921.749091 C950.28,921.749091 940.872,929.237091 940.872,939.797091 C940.872,963.605091 977.64,953.621091 977.64,971.573091 C977.64,979.349091 971.304,984.629091 962.088,984.629091 C951.72,984.629091 945.672,978.965091 945.672,972.149091 L938.952,972.149091 C938.952,983.573091 947.88,990.869091 962.088,990.869091 Z" id="MAKE-SHIT-NOT-ADS-Copy-8"></path>
            <path d="M25.608,1038.07273 L18.312,1038.07273 L18.312,1105.27273 L25.032,1105.27273 L25.032,1051.51273 L38.088,1085.88073 L42.312,1085.88073 L55.368,1051.51273 L55.368,1105.27273 L62.088,1105.27273 L62.088,1038.07273 L54.792,1038.07273 L40.2,1076.47273 L25.608,1038.07273 Z M85.704,1087.12873 L80.424,1105.27273 L73.032,1105.27273 L93.288,1038.07273 L102.312,1038.07273 L122.568,1105.27273 L115.176,1105.27273 L109.896,1087.12873 L85.704,1087.12873 Z M97.8,1044.40873 L86.952,1081.36873 L108.648,1081.36873 L97.8,1044.40873 Z M149.448,1071.48073 L170.376,1105.27273 L177.96,1105.27273 L153.768,1066.29673 L177,1038.07273 L168.84,1038.07273 L139.848,1072.82473 L139.848,1038.07273 L132.84,1038.07273 L132.84,1105.27273 L139.848,1105.27273 L139.848,1083.19273 L149.448,1071.48073 Z M232.968,1038.07273 L193.032,1038.07273 L193.032,1105.27273 L232.968,1105.27273 L232.968,1099.12873 L200.04,1099.12873 L200.04,1074.55273 L231.048,1074.55273 L231.048,1068.79273 L200.04,1068.79273 L200.04,1044.21673 L232.968,1044.21673 L232.968,1038.07273 Z M328.488,1106.23273 C341.736,1106.23273 351.048,1098.07273 351.048,1086.74473 C351.048,1063.03273 314.28,1074.07273 314.28,1055.16073 C314.28,1047.67273 321.384,1043.25673 328.488,1043.25673 C337.416,1043.25673 342.408,1048.24873 342.408,1054.68073 L349.128,1054.68073 C349.128,1043.73673 340.776,1037.11273 328.488,1037.11273 C316.68,1037.11273 307.272,1044.60073 307.272,1055.16073 C307.272,1078.96873 344.04,1068.98473 344.04,1086.93673 C344.04,1094.71273 337.704,1099.99273 328.488,1099.99273 C318.12,1099.99273 312.072,1094.32873 312.072,1087.51273 L305.352,1087.51273 C305.352,1098.93673 314.28,1106.23273 328.488,1106.23273 Z M371.88,1038.07273 L364.872,1038.07273 L364.872,1105.27273 L371.88,1105.27273 L371.88,1074.74473 L399.72,1074.74473 L399.72,1105.27273 L406.728,1105.27273 L406.728,1038.07273 L399.72,1038.07273 L399.72,1068.60073 L371.88,1068.60073 L371.88,1038.07273 Z M439.944,1099.12873 L421.512,1099.12873 L421.512,1105.27273 L465.288,1105.27273 L465.288,1099.12873 L446.952,1099.12873 L446.952,1044.21673 L465.288,1044.21673 L465.288,1038.07273 L421.512,1038.07273 L421.512,1044.21673 L439.944,1044.21673 L439.944,1099.12873 Z M479.112,1043.83273 L497.544,1043.83273 L497.544,1105.27273 L504.552,1105.27273 L504.552,1043.83273 L522.888,1043.83273 L522.888,1038.07273 L479.112,1038.07273 L479.112,1043.83273 Z M600.84,1038.07273 L594.312,1038.07273 L594.312,1105.27273 L601.032,1105.27273 L601.032,1050.55273 L631.56,1105.27273 L638.088,1105.27273 L638.088,1038.07273 L631.368,1038.07273 L631.368,1092.79273 L600.84,1038.07273 Z M673.8,1106.23273 C658.152,1106.23273 650.76,1095.67273 650.76,1071.67273 C650.76,1047.67273 658.152,1037.11273 673.8,1037.11273 C689.544,1037.11273 696.84,1047.57673 696.84,1071.67273 C696.84,1095.67273 689.544,1106.23273 673.8,1106.23273 Z M673.8,1099.70473 C685.896,1099.70473 689.832,1089.33673 689.832,1071.67273 C689.832,1054.00873 685.896,1043.64073 673.8,1043.64073 C661.8,1043.64073 657.768,1054.00873 657.768,1071.67273 C657.768,1089.33673 661.8,1099.70473 673.8,1099.70473 Z M709.512,1043.83273 L727.944,1043.83273 L727.944,1105.27273 L734.952,1105.27273 L734.952,1043.83273 L753.288,1043.83273 L753.288,1038.07273 L709.512,1038.07273 L709.512,1043.83273 Z M834.504,1087.12873 L829.224,1105.27273 L821.832,1105.27273 L842.088,1038.07273 L851.112,1038.07273 L871.368,1105.27273 L863.976,1105.27273 L858.696,1087.12873 L834.504,1087.12873 Z M846.6,1044.40873 L835.752,1081.36873 L857.448,1081.36873 L846.6,1044.40873 Z M899.208,1038.07273 C916.104,1038.07273 926.088,1044.21673 926.088,1071.67273 C926.088,1099.22473 916.104,1105.27273 899.208,1105.27273 L882.312,1105.27273 L882.312,1038.07273 L899.208,1038.07273 Z M898.824,1099.12873 C911.112,1099.12873 919.08,1095.86473 919.08,1071.67273 C919.08,1047.57673 911.112,1044.21673 898.824,1044.21673 L889.32,1044.21673 L889.32,1099.12873 L898.824,1099.12873 Z M962.088,1106.23273 C975.336,1106.23273 984.648,1098.07273 984.648,1086.74473 C984.648,1063.03273 947.88,1074.07273 947.88,1055.16073 C947.88,1047.67273 954.984,1043.25673 962.088,1043.25673 C971.016,1043.25673 976.008,1048.24873 976.008,1054.68073 L982.728,1054.68073 C982.728,1043.73673 974.376,1037.11273 962.088,1037.11273 C950.28,1037.11273 940.872,1044.60073 940.872,1055.16073 C940.872,1078.96873 977.64,1068.98473 977.64,1086.93673 C977.64,1094.71273 971.304,1099.99273 962.088,1099.99273 C951.72,1099.99273 945.672,1094.32873 945.672,1087.51273 L938.952,1087.51273 C938.952,1098.93673 947.88,1106.23273 962.088,1106.23273 Z" id="MAKE-SHIT-NOT-ADS-Copy-9"></path>
            <path d="M25.608,1153.43636 L18.312,1153.43636 L18.312,1220.63636 L25.032,1220.63636 L25.032,1166.87636 L38.088,1201.24436 L42.312,1201.24436 L55.368,1166.87636 L55.368,1220.63636 L62.088,1220.63636 L62.088,1153.43636 L54.792,1153.43636 L40.2,1191.83636 L25.608,1153.43636 Z M85.704,1202.49236 L80.424,1220.63636 L73.032,1220.63636 L93.288,1153.43636 L102.312,1153.43636 L122.568,1220.63636 L115.176,1220.63636 L109.896,1202.49236 L85.704,1202.49236 Z M97.8,1159.77236 L86.952,1196.73236 L108.648,1196.73236 L97.8,1159.77236 Z M149.448,1186.84436 L170.376,1220.63636 L177.96,1220.63636 L153.768,1181.66036 L177,1153.43636 L168.84,1153.43636 L139.848,1188.18836 L139.848,1153.43636 L132.84,1153.43636 L132.84,1220.63636 L139.848,1220.63636 L139.848,1198.55636 L149.448,1186.84436 Z M232.968,1153.43636 L193.032,1153.43636 L193.032,1220.63636 L232.968,1220.63636 L232.968,1214.49236 L200.04,1214.49236 L200.04,1189.91636 L231.048,1189.91636 L231.048,1184.15636 L200.04,1184.15636 L200.04,1159.58036 L232.968,1159.58036 L232.968,1153.43636 Z M328.488,1221.59636 C341.736,1221.59636 351.048,1213.43636 351.048,1202.10836 C351.048,1178.39636 314.28,1189.43636 314.28,1170.52436 C314.28,1163.03636 321.384,1158.62036 328.488,1158.62036 C337.416,1158.62036 342.408,1163.61236 342.408,1170.04436 L349.128,1170.04436 C349.128,1159.10036 340.776,1152.47636 328.488,1152.47636 C316.68,1152.47636 307.272,1159.96436 307.272,1170.52436 C307.272,1194.33236 344.04,1184.34836 344.04,1202.30036 C344.04,1210.07636 337.704,1215.35636 328.488,1215.35636 C318.12,1215.35636 312.072,1209.69236 312.072,1202.87636 L305.352,1202.87636 C305.352,1214.30036 314.28,1221.59636 328.488,1221.59636 Z M371.88,1153.43636 L364.872,1153.43636 L364.872,1220.63636 L371.88,1220.63636 L371.88,1190.10836 L399.72,1190.10836 L399.72,1220.63636 L406.728,1220.63636 L406.728,1153.43636 L399.72,1153.43636 L399.72,1183.96436 L371.88,1183.96436 L371.88,1153.43636 Z M439.944,1214.49236 L421.512,1214.49236 L421.512,1220.63636 L465.288,1220.63636 L465.288,1214.49236 L446.952,1214.49236 L446.952,1159.58036 L465.288,1159.58036 L465.288,1153.43636 L421.512,1153.43636 L421.512,1159.58036 L439.944,1159.58036 L439.944,1214.49236 Z M479.112,1159.19636 L497.544,1159.19636 L497.544,1220.63636 L504.552,1220.63636 L504.552,1159.19636 L522.888,1159.19636 L522.888,1153.43636 L479.112,1153.43636 L479.112,1159.19636 Z M600.84,1153.43636 L594.312,1153.43636 L594.312,1220.63636 L601.032,1220.63636 L601.032,1165.91636 L631.56,1220.63636 L638.088,1220.63636 L638.088,1153.43636 L631.368,1153.43636 L631.368,1208.15636 L600.84,1153.43636 Z M673.8,1221.59636 C658.152,1221.59636 650.76,1211.03636 650.76,1187.03636 C650.76,1163.03636 658.152,1152.47636 673.8,1152.47636 C689.544,1152.47636 696.84,1162.94036 696.84,1187.03636 C696.84,1211.03636 689.544,1221.59636 673.8,1221.59636 Z M673.8,1215.06836 C685.896,1215.06836 689.832,1204.70036 689.832,1187.03636 C689.832,1169.37236 685.896,1159.00436 673.8,1159.00436 C661.8,1159.00436 657.768,1169.37236 657.768,1187.03636 C657.768,1204.70036 661.8,1215.06836 673.8,1215.06836 Z M709.512,1159.19636 L727.944,1159.19636 L727.944,1220.63636 L734.952,1220.63636 L734.952,1159.19636 L753.288,1159.19636 L753.288,1153.43636 L709.512,1153.43636 L709.512,1159.19636 Z M834.504,1202.49236 L829.224,1220.63636 L821.832,1220.63636 L842.088,1153.43636 L851.112,1153.43636 L871.368,1220.63636 L863.976,1220.63636 L858.696,1202.49236 L834.504,1202.49236 Z M846.6,1159.77236 L835.752,1196.73236 L857.448,1196.73236 L846.6,1159.77236 Z M899.208,1153.43636 C916.104,1153.43636 926.088,1159.58036 926.088,1187.03636 C926.088,1214.58836 916.104,1220.63636 899.208,1220.63636 L882.312,1220.63636 L882.312,1153.43636 L899.208,1153.43636 Z M898.824,1214.49236 C911.112,1214.49236 919.08,1211.22836 919.08,1187.03636 C919.08,1162.94036 911.112,1159.58036 898.824,1159.58036 L889.32,1159.58036 L889.32,1214.49236 L898.824,1214.49236 Z M962.088,1221.59636 C975.336,1221.59636 984.648,1213.43636 984.648,1202.10836 C984.648,1178.39636 947.88,1189.43636 947.88,1170.52436 C947.88,1163.03636 954.984,1158.62036 962.088,1158.62036 C971.016,1158.62036 976.008,1163.61236 976.008,1170.04436 L982.728,1170.04436 C982.728,1159.10036 974.376,1152.47636 962.088,1152.47636 C950.28,1152.47636 940.872,1159.96436 940.872,1170.52436 C940.872,1194.33236 977.64,1184.34836 977.64,1202.30036 C977.64,1210.07636 971.304,1215.35636 962.088,1215.35636 C951.72,1215.35636 945.672,1209.69236 945.672,1202.87636 L938.952,1202.87636 C938.952,1214.30036 947.88,1221.59636 962.088,1221.59636 Z" id="MAKE-SHIT-NOT-ADS-Copy-10"></path>
            <path d="M25.608,1268.8 L18.312,1268.8 L18.312,1336 L25.032,1336 L25.032,1282.24 L38.088,1316.608 L42.312,1316.608 L55.368,1282.24 L55.368,1336 L62.088,1336 L62.088,1268.8 L54.792,1268.8 L40.2,1307.2 L25.608,1268.8 Z M85.704,1317.856 L80.424,1336 L73.032,1336 L93.288,1268.8 L102.312,1268.8 L122.568,1336 L115.176,1336 L109.896,1317.856 L85.704,1317.856 Z M97.8,1275.136 L86.952,1312.096 L108.648,1312.096 L97.8,1275.136 Z M149.448,1302.208 L170.376,1336 L177.96,1336 L153.768,1297.024 L177,1268.8 L168.84,1268.8 L139.848,1303.552 L139.848,1268.8 L132.84,1268.8 L132.84,1336 L139.848,1336 L139.848,1313.92 L149.448,1302.208 Z M232.968,1268.8 L193.032,1268.8 L193.032,1336 L232.968,1336 L232.968,1329.856 L200.04,1329.856 L200.04,1305.28 L231.048,1305.28 L231.048,1299.52 L200.04,1299.52 L200.04,1274.944 L232.968,1274.944 L232.968,1268.8 Z M328.488,1336.96 C341.736,1336.96 351.048,1328.8 351.048,1317.472 C351.048,1293.76 314.28,1304.8 314.28,1285.888 C314.28,1278.4 321.384,1273.984 328.488,1273.984 C337.416,1273.984 342.408,1278.976 342.408,1285.408 L349.128,1285.408 C349.128,1274.464 340.776,1267.84 328.488,1267.84 C316.68,1267.84 307.272,1275.328 307.272,1285.888 C307.272,1309.696 344.04,1299.712 344.04,1317.664 C344.04,1325.44 337.704,1330.72 328.488,1330.72 C318.12,1330.72 312.072,1325.056 312.072,1318.24 L305.352,1318.24 C305.352,1329.664 314.28,1336.96 328.488,1336.96 Z M371.88,1268.8 L364.872,1268.8 L364.872,1336 L371.88,1336 L371.88,1305.472 L399.72,1305.472 L399.72,1336 L406.728,1336 L406.728,1268.8 L399.72,1268.8 L399.72,1299.328 L371.88,1299.328 L371.88,1268.8 Z M439.944,1329.856 L421.512,1329.856 L421.512,1336 L465.288,1336 L465.288,1329.856 L446.952,1329.856 L446.952,1274.944 L465.288,1274.944 L465.288,1268.8 L421.512,1268.8 L421.512,1274.944 L439.944,1274.944 L439.944,1329.856 Z M479.112,1274.56 L497.544,1274.56 L497.544,1336 L504.552,1336 L504.552,1274.56 L522.888,1274.56 L522.888,1268.8 L479.112,1268.8 L479.112,1274.56 Z M600.84,1268.8 L594.312,1268.8 L594.312,1336 L601.032,1336 L601.032,1281.28 L631.56,1336 L638.088,1336 L638.088,1268.8 L631.368,1268.8 L631.368,1323.52 L600.84,1268.8 Z M673.8,1336.96 C658.152,1336.96 650.76,1326.4 650.76,1302.4 C650.76,1278.4 658.152,1267.84 673.8,1267.84 C689.544,1267.84 696.84,1278.304 696.84,1302.4 C696.84,1326.4 689.544,1336.96 673.8,1336.96 Z M673.8,1330.432 C685.896,1330.432 689.832,1320.064 689.832,1302.4 C689.832,1284.736 685.896,1274.368 673.8,1274.368 C661.8,1274.368 657.768,1284.736 657.768,1302.4 C657.768,1320.064 661.8,1330.432 673.8,1330.432 Z M709.512,1274.56 L727.944,1274.56 L727.944,1336 L734.952,1336 L734.952,1274.56 L753.288,1274.56 L753.288,1268.8 L709.512,1268.8 L709.512,1274.56 Z M834.504,1317.856 L829.224,1336 L821.832,1336 L842.088,1268.8 L851.112,1268.8 L871.368,1336 L863.976,1336 L858.696,1317.856 L834.504,1317.856 Z M846.6,1275.136 L835.752,1312.096 L857.448,1312.096 L846.6,1275.136 Z M899.208,1268.8 C916.104,1268.8 926.088,1274.944 926.088,1302.4 C926.088,1329.952 916.104,1336 899.208,1336 L882.312,1336 L882.312,1268.8 L899.208,1268.8 Z M898.824,1329.856 C911.112,1329.856 919.08,1326.592 919.08,1302.4 C919.08,1278.304 911.112,1274.944 898.824,1274.944 L889.32,1274.944 L889.32,1329.856 L898.824,1329.856 Z M962.088,1336.96 C975.336,1336.96 984.648,1328.8 984.648,1317.472 C984.648,1293.76 947.88,1304.8 947.88,1285.888 C947.88,1278.4 954.984,1273.984 962.088,1273.984 C971.016,1273.984 976.008,1278.976 976.008,1285.408 L982.728,1285.408 C982.728,1274.464 974.376,1267.84 962.088,1267.84 C950.28,1267.84 940.872,1275.328 940.872,1285.888 C940.872,1309.696 977.64,1299.712 977.64,1317.664 C977.64,1325.44 971.304,1330.72 962.088,1330.72 C951.72,1330.72 945.672,1325.056 945.672,1318.24 L938.952,1318.24 C938.952,1329.664 947.88,1336.96 962.088,1336.96 Z" id="MAKE-SHIT-NOT-ADS-Copy-11"></path>
        </g>
    </g>
</svg>