<?xml version="1.0" encoding="UTF-8"?>
<svg width="1002px" height="1336px" viewBox="0 0 1002 1336" version="1.1" xmlns="http://www.w3.org/2000/svg" xmlns:xlink="http://www.w3.org/1999/xlink">
    <!-- Generator: Sketch 44.1 (41455) - http://www.bohemiancoding.com/sketch -->
    <title>Artboard Copy 78</title>
    <desc>Created with Sketch.</desc>
    <defs>
        <polygon id="path-1" points="0.56084778 0.132 14.6164412 0.132 14.6164412 17.2934713 0.56084778 17.2934713 0.56084778 0.132"></polygon>
        <polygon id="path-3" points="16.64215 0.124123889 16.64215 14.9391667 0.743901146 14.9391667 0.743901146 0.124123889 16.64215 0.124123889"></polygon>
    </defs>
    <g id="Page-1" stroke="none" stroke-width="1" fill="none" fill-rule="evenodd">
        <g id="Artboard-Copy-78">
            <rect id="Rectangle-6" fill="#FF7B7B" x="-24" y="334" width="230" height="230"></rect>
            <rect id="Rectangle-6-Copy" fill="#FF7B7B" x="873" y="939" width="230" height="230"></rect>
            <rect id="Rectangle-6-Copy-8" fill="#FF7B7B" x="910" y="-131" width="230" height="230"></rect>
            <rect id="Rectangle-6-Copy-7" fill="#7ED321" x="26" y="871" width="230" height="230"></rect>
            <rect id="Rectangle-6-Copy-6" fill="#4990E2" x="-74" y="781" width="230" height="230"></rect>
            <rect id="Rectangle-6-Copy-4" fill="#4990E2" x="91" y="-38" width="230" height="230"></rect>
            <rect id="Rectangle-6-Copy-2" fill="#7ED321" x="620" y="551" width="230" height="230"></rect>
            <rect id="Rectangle-6-Copy-5" fill="#FF7B7B" x="365" y="1262" width="230" height="230"></rect>
            <rect id="Rectangle-6-Copy-3" fill="#4A90E2" x="873" y="436" width="230" height="230"></rect>
            <g id="Page-1" opacity="0.858469203" transform="translate(654.000000, 643.000000)">
                <path d="M131.313206,31.876472 C130.799103,31.876472 130.525826,31.7955324 130.334532,31.8885268 C128.547128,32.7556139 127.56333,34.5087314 126.156806,35.7994599 C126.056889,35.8915932 126.041517,36.2411835 126.128624,36.3333168 C126.226833,36.436644 126.51292,36.4478378 126.671763,36.3832583 C126.945894,36.2730427 127.203799,36.0973865 127.434377,35.9088144 C128.163686,35.3086558 128.92203,34.7360512 129.583019,34.0670078 C130.144092,33.4987084 130.585605,32.8107217 131.313206,31.876472 M118.611792,31.9100533 C118.610084,31.9066091 118.546889,31.6147099 118.406834,31.5716569 C118.243722,31.5191322 117.951657,31.6276258 117.824412,31.7671174 C117.352155,32.2854754 116.920889,32.8408588 116.482792,33.3893538 C116.048964,33.9318214 115.589517,34.45879 115.212053,35.0391442 C115.050648,35.2879904 115.067728,35.6548018 115.002825,35.9673665 C115.305138,35.9088144 115.640756,35.9131197 115.90037,35.772767 C116.218908,35.6014161 116.440946,35.1648589 116.760339,35.094252 C118.105375,34.7963253 118.747577,34.0618414 118.520415,32.6436762 C118.494795,32.4835191 118.558845,32.308724 118.611792,31.9100533 M127.444625,39.0964573 C125.944162,39.0955963 125.781904,39.2247552 125.409564,40.6472258 C125.326726,40.9658179 125.169592,41.2637445 125.079923,41.5814755 C125.012458,41.8182669 124.999648,42.0714185 124.962926,42.3168205 C125.222539,42.3116541 125.535954,42.4003433 125.730664,42.2849613 C126.480469,41.8397934 127.236251,41.3834318 127.902364,40.8263262 C128.318258,40.4784581 128.577872,39.9411569 128.908366,39.4891005 C128.454043,39.3573584 128.000573,39.2264773 127.54625,39.0973184 C127.514652,39.0878467 127.478785,39.0964573 127.444625,39.0964573 M112.805505,29.667854 C113.419525,29.667854 114.040376,29.6136072 114.64671,29.6867973 C115.047232,29.7350166 115.528883,29.8650366 115.792767,30.1362704 C116.369211,30.7321237 116.784251,30.6451567 117.311163,30.0983838 C117.656176,29.7375998 118.07634,29.4215909 118.516999,29.1882437 C119.357327,28.7413538 120.128481,29.1141926 120.241208,30.0518866 C120.311235,30.6331019 120.169473,31.2384268 120.140437,31.8342801 C120.119941,32.2458666 120.108839,32.6600363 120.130189,33.0724839 C120.157517,33.594286 120.329169,33.7535821 120.921839,33.5744817 C122.268583,33.1672005 123.618744,33.1525624 124.636701,34.3571849 C125.219977,35.0468937 125.570114,34.7670493 126.065429,34.2486914 C127.205507,33.0552627 128.322528,31.8101704 129.620595,30.8139244 C130.208995,30.3618681 131.205603,30.3360363 132.017749,30.3291478 C132.817085,30.3213983 133.203089,31.1721252 132.89309,32.0262964 C132.305544,33.6459496 130.977587,34.6499452 129.751256,35.7099096 C129.124426,36.2523772 128.34217,36.6131612 127.641897,37.0738282 C127.511236,37.1599341 127.435231,37.331285 127.33446,37.4621661 C127.487325,37.5534384 127.629941,37.6739868 127.793907,37.7290946 C128.237129,37.878919 128.687182,38.0123832 129.139798,38.1303484 C130.489958,38.4825218 130.849489,39.3349708 130.256819,40.6084781 C129.587289,42.0464477 128.153438,42.4950598 126.942478,43.1262166 C125.91171,43.6643789 124.660613,43.9192525 123.488083,43.9933036 C122.361668,44.0647716 122.167812,43.5619128 122.661419,42.5932206 C122.747672,42.4227308 122.837342,42.1558023 122.765606,42.0154496 C121.867207,40.2614711 123.341196,39.0310168 123.688771,37.5542995 C123.862131,36.8206766 124.064527,35.9992257 123.897145,35.3052116 C123.707559,34.5199252 122.874917,34.4751501 122.111449,34.4949545 C120.277075,34.5423127 119.551183,35.4016503 119.216418,37.5310508 C118.967053,39.1197059 118.453804,40.6678912 118.002896,42.2177986 C117.906395,42.5458623 117.61433,42.8782314 117.322265,43.0633592 C117.111329,43.1976845 116.749237,43.0909131 116.455464,43.0917742 C116.468274,42.8472332 116.4418,42.5914985 116.499872,42.3581513 C116.83122,41.0166204 117.188189,39.682839 117.522953,38.3430301 C117.660446,37.792813 117.80477,37.2391516 117.86882,36.6768797 C117.918351,36.2446277 117.752677,36.0164469 117.272734,36.3221231 C116.794499,36.6277993 116.300038,36.927448 115.775687,37.1341023 C115.225717,37.3510894 114.611697,37.4079193 114.06258,37.6274895 C113.733794,37.7575095 113.358891,38.0063558 113.205173,38.3060045 C112.605671,39.4770457 112.110356,40.7014725 111.519394,41.87768 C111.378485,42.1566634 111.019809,42.32457 110.76105,42.5441402 C110.476671,42.1936889 109.914744,41.8001847 109.961714,41.5048412 C110.088958,40.6902788 110.373338,39.8619394 110.773006,39.1395103 C112.07705,36.7759015 113.473326,34.4656784 114.795305,32.1124024 C114.950731,31.8368633 115.011365,31.3081726 114.852522,31.1049625 C114.675746,30.8776428 114.195803,30.7992864 113.853352,30.8113412 C112.770491,30.8483668 111.6919,30.9758036 110.609893,31.0334946 C109.662817,31.0834361 109.088935,31.4821067 108.772104,32.4456325 C108.162354,34.3046603 107.419381,36.1197741 106.75583,37.9607196 C106.436437,38.8476111 106.181094,39.7568901 105.878781,40.649809 C105.730187,41.0906715 105.457763,41.5616711 104.9522,41.2757993 C104.658427,41.1096148 104.343305,40.549065 104.408208,40.2451109 C104.630246,39.1972013 104.988068,38.1734014 105.344182,37.1599341 C105.877927,35.6358585 106.459495,34.1298652 107.002634,32.6109559 C107.050457,32.4766306 107.01032,32.1916198 106.932606,32.1571775 C106.77291,32.0865706 106.538062,32.0839874 106.374096,32.15115 C105.846329,32.366415 105.352722,32.6798407 104.812146,32.8460252 C104.58413,32.915771 104.273277,32.7168662 104,32.6402319 C104.131515,32.424106 104.21606,32.1416784 104.403938,32.0021867 C105.834373,30.9405002 107.35277,30.1216324 109.195683,30.0096947 C110.397249,29.9365046 111.587713,29.682492 112.783301,29.5085579 C112.790987,29.5619436 112.797819,29.6144683 112.805505,29.667854" id="Fill-1" fill="#000000"></path>
                <path d="M114.986855,12.9889286 C113.707381,13.2088663 112.216798,11.7493558 111.913382,10.1853538 C111.630479,8.72500057 111.480908,7.24020984 111.25185,5.76974456 C111.221081,5.57003093 111.068946,5.38885613 110.972366,5.19925459 C110.80741,5.35683453 110.544165,5.48997695 110.495448,5.6762078 C110.343313,6.25428183 110.168101,6.85679339 110.190323,7.44329416 C110.274083,9.67469363 109.070676,11.4940257 108.241625,13.4203774 C108.079233,13.7978951 107.338215,13.9327229 106.863861,14.1796262 C106.707453,13.6807635 106.312585,13.1128016 106.438225,12.6965209 C106.82711,11.4047024 107.460436,10.1853538 107.910004,8.90786073 C108.345897,7.66913066 108.697176,6.398379 109.022813,5.12509932 C109.079223,4.90516153 108.873242,4.56135074 108.68692,4.37090652 C108.620254,4.30264997 108.201454,4.46444328 108.031371,4.61696719 C107.0895,5.46385407 105.904042,6.19445201 105.323706,7.24442321 C104.677559,8.41489672 104.589526,9.88451933 104.263033,11.2252129 C103.982694,12.3746196 103.722868,13.5290823 103.419452,14.6725902 C103.354496,14.9152802 103.182703,15.1706103 102.985269,15.3265049 C102.799801,15.4731301 102.514334,15.4967249 102.27331,15.5742509 C102.210918,15.3324036 102.058783,15.0753882 102.098953,14.8520797 C102.331429,13.5872268 102.612623,12.3316432 102.869031,11.0718463 C102.902364,10.9083677 102.918603,10.7322489 102.895526,10.5687702 C102.842535,10.1954659 102.760485,9.82553219 102.6904,9.45391317 C102.401514,9.67048026 102.099808,9.87103656 101.828871,10.1069851 C101.023751,10.8030335 100.111794,11.4223985 99.465647,12.2431625 C98.7938591,13.0976334 98.3724959,14.1459193 97.8605354,15.1192072 C97.3366091,16.1169327 96.6614024,16.2947368 96.1374762,15.5102077 C95.9879051,15.2868992 95.9494439,14.8402823 96.0767931,14.6136031 C97.1725083,12.6510165 98.3075393,10.7094967 99.4519719,8.77387564 C100.599823,6.83235586 101.760495,4.90010549 102.93997,2.9779672 C103.128002,2.67207671 103.392957,2.32995127 103.70492,2.20186489 C104.116881,2.03417286 104.651918,1.93136669 105.054478,2.05355435 C105.281826,2.12265358 105.351056,2.69988494 105.488662,3.04875178 C105.499773,3.07824535 105.485243,3.11700833 105.492081,3.14902992 C105.586097,3.62008442 105.680968,4.09029624 105.776693,4.56050806 C106.185236,4.30517799 106.579249,4.02203969 107.00574,3.80125923 C107.801459,3.38750653 108.444187,2.4277014 109.570671,3.09678417 C109.714259,3.18189419 110.035624,3.07150396 110.227075,2.96701245 C111.72535,2.15046181 112.468077,2.53977697 112.619358,4.27147105 C112.727904,5.50177438 112.697135,6.75230188 112.905679,7.96490906 C113.09884,9.08566484 113.496272,10.1786124 113.873191,11.2597625 C113.961224,11.5117219 114.309084,11.7881188 114.573184,11.8294098 C114.752669,11.8563754 115.103093,11.5319461 115.189417,11.2985255 C115.759496,9.75221959 116.2612,8.18147616 116.819314,6.63095689 C117.291104,5.32059957 117.801355,4.02288236 118.316735,2.72853584 C118.366307,2.60213481 118.56545,2.53472093 118.695363,2.43949882 C118.8022,2.59118006 119.00989,2.74876 118.999634,2.89117183 C118.943224,3.65463403 118.920147,4.43663506 118.724423,5.17060369 C118.169728,7.24189519 117.526145,9.28959183 116.938971,11.3532993 C116.62188,12.4656283 116.027015,12.9872432 114.986855,12.9889286" id="Fill-3" fill="#000000"></path>
                <path d="M151.405378,4.82098277 C151.244424,4.43890716 151.099824,3.74317412 150.921655,3.73340009 C150.396618,3.70674366 149.699437,3.77960459 149.352568,4.11991845 C148.151868,5.30168721 147.038961,6.58386189 145.961344,7.88913881 C145.537871,8.40271952 145.219406,9.04780533 144.993037,9.6866713 C144.740847,10.3983982 144.639283,11.1687693 144.490379,11.9178152 C144.446482,12.1399522 144.461975,12.3745288 144.450786,12.6037742 C144.699533,12.572675 144.990455,12.6153253 145.192724,12.4971484 C146.823782,11.5419594 148.588252,10.8009104 149.719234,9.09578692 C150.575647,7.80206112 151.315864,6.50566967 151.405378,4.82098277 M140.672239,4.15990311 C137.109732,4.56596951 134.39417,5.62245302 133.043705,9.00248938 C132.738151,9.76664061 133.009277,9.97456083 133.60145,9.88304039 C134.696282,9.71243919 135.772178,9.41210998 136.860124,9.1881959 C137.082189,9.14199141 137.323189,9.189973 137.555583,9.19441574 C137.373972,9.46364577 137.245725,9.87504346 136.998699,9.97633793 C136.252458,10.282887 135.45113,10.441937 134.687674,10.7085014 C133.670307,11.0639206 132.540186,11.2780607 132.127042,12.5406873 C132.05302,12.7690441 131.916166,13.0231688 131.958341,13.2328661 C132.02892,13.5856197 132.139952,14.0574386 132.385257,14.2013834 C132.56945,14.3080091 133.057477,14.0512188 133.297617,13.8273047 C134.016315,13.1573396 134.660131,12.3994082 135.381412,11.7312201 C135.551834,11.5730586 135.911614,11.6334798 136.184461,11.5926066 C136.137122,11.9471373 136.201675,12.3860799 136.021786,12.6410932 C135.404652,13.51809 134.716078,14.3426625 134.027505,15.1627923 C132.95333,16.4431898 131.419532,16.2361582 130.802398,14.6705367 C130.429708,13.722456 130.21625,12.7006259 130.008818,11.6947896 C129.956314,11.442442 130.148254,11.0843572 130.320397,10.8453378 C130.817031,10.1549361 131.339486,9.51873574 130.877281,8.55466122 C130.79207,8.37606309 130.998642,7.93267766 131.192303,7.74697114 C132.273364,6.7100357 132.988619,5.48295099 133.355285,3.99641028 C133.438774,3.65609642 133.92594,3.42151977 134.227191,3.13896152 C134.497456,3.47660974 134.905436,3.77693894 135.00614,4.1616802 C135.161929,4.75967297 135.267798,4.81654003 135.816074,4.52509631 C137.745801,3.50060053 139.816686,2.84485215 141.985693,3.18872021 C142.94281,3.33977336 143.982556,3.78493587 144.433571,4.9604848 C144.591083,5.37099395 145.02058,5.67043461 145.325274,6.01963395 C145.593818,5.72907877 145.846869,5.42075263 146.133487,5.15063406 C147.112983,4.2283213 148.003825,3.15228974 149.113289,2.44145139 C150.935427,1.27567649 153.039879,2.55340843 152.999426,4.69925171 C152.92024,8.80700884 150.695287,11.4451077 147.343655,13.2497485 C146.084426,13.9277106 144.82778,14.6989702 143.477315,15.0810458 C142.419494,15.379598 141.216212,15.1832289 140.083508,15.1094794 C139.882961,15.0961512 139.710818,14.6092269 139.524903,14.3408854 C139.781397,14.2298169 140.050801,14.0014601 140.292663,14.0281165 C141.180062,14.1267454 141.227401,13.6718088 141.413316,12.8925523 C141.702517,11.6805729 142.240465,10.4659278 142.932481,9.43787788 C143.658926,8.35740358 143.991163,5.78594584 143.002199,4.97470157 C142.324815,4.41847056 141.270437,4.35271801 140.672239,4.15990311" id="Fill-5" fill="#000000"></path>
                <path d="M100.290951,30.3045366 C100.201417,30.3159439 99.9792712,30.2913743 99.8044265,30.3747355 C96.9503196,31.7225547 94.7508243,33.8065851 93.2912514,36.701413 C93.1485038,36.9848411 93.1240087,37.3340807 93.043766,37.6526083 C93.4238631,37.5973266 93.8521058,37.6403235 94.1756107,37.4692136 C95.445135,36.797059 96.6825623,36.0590929 97.9318148,35.3439414 C99.427708,34.4883921 100.633883,33.3704743 101.245417,31.640071 C101.575679,30.7064254 101.373805,30.312434 100.290951,30.3045366 M89.5012609,30.5476004 C90.3670377,30.4580967 91.3764067,30.5265407 92.1180184,31.4066596 C92.4195621,31.7646741 92.6645135,32.2042948 92.8326009,32.648303 C93.2143873,33.6565349 93.3951446,33.6460051 94.1384456,32.9852578 C95.4966593,31.7787139 96.8641642,30.5256632 98.4073585,29.6253621 C99.2765139,29.1181749 100.424407,28.7136536 101.593417,29.2629602 C102.677961,29.7736573 103.317368,30.8863101 102.839291,32.0410823 C102.544504,32.7544788 102.07065,33.4310209 101.545271,33.9891023 C99.5983294,36.0634803 97.2712905,37.5718795 94.7111253,38.7020821 C94.6807175,38.7161219 94.6579117,38.7652611 94.6317272,38.7652611 C92.6636689,38.7696486 92.4499698,40.4123032 92.0538242,41.820669 C91.8570183,42.5182707 91.6509212,43.3948797 90.9219795,43.21324 C90.4101154,43.085127 89.973426,42.2401075 89.6921542,41.6206021 C89.4632512,41.1169249 89.4776105,40.4763597 89.4556493,39.8937087 C89.446358,39.6445026 89.5451833,39.2891205 89.7200279,39.1478452 C91.6475426,37.5841643 91.9347271,35.4115078 91.813096,33.1045959 C91.7700183,32.3043283 90.7125037,31.638316 89.6828629,31.5593423 C87.2063191,31.3698052 85.0448335,32.354345 82.9956878,33.5854585 C81.7202508,34.3523817 80.5487071,35.3334116 79.4236197,36.3328686 C78.943008,36.7602045 78.682008,37.4674586 78.3652604,38.0729243 C78.2959982,38.2036698 78.3829983,38.5871314 78.4539497,38.6038036 C78.769008,38.6792675 79.1474158,38.7749135 79.4236197,38.6590853 C80.4084935,38.2501766 81.3595809,37.7526417 82.3275616,37.2989812 C82.5032509,37.2164975 82.6966781,37.1454211 82.885882,37.1331363 C83.0379208,37.1243614 83.1958723,37.2138651 83.3512898,37.2594943 C83.276115,37.4270943 83.2465519,37.6771779 83.1198529,37.7517643 C82.0640276,38.3782896 80.9752605,38.9451459 79.9287265,39.5874659 C79.2099206,40.0279642 78.5240565,40.5360288 77.8694448,41.0730505 C77.7410565,41.1792264 77.7157167,41.6714963 77.8289011,41.7820596 C77.9910759,41.9417621 78.3703283,42.0356532 78.5755808,41.9496595 C80.1137071,41.3003195 81.6290275,40.592188 83.1587072,39.9209108 C83.6131344,39.7208439 84.0819209,39.5304293 84.5625325,39.4330283 C84.7644063,39.3917865 85.0144258,39.6041382 85.242484,39.7006617 C85.1360568,39.8963412 85.0769306,40.1788918 84.9156005,40.2736604 C82.8546295,41.4933666 80.8080178,42.7437848 78.6963672,43.8617025 C77.6549011,44.4136415 76.1125515,43.2176275 76.0255515,41.9698417 C75.8895612,40.0411265 76.2992214,38.2589514 77.1869594,36.5627701 C77.5003283,35.9634468 77.5847943,35.2342556 77.9049206,34.6410747 C78.0738526,34.329567 78.5578429,33.9548803 78.8433381,33.9987546 C80.2404061,34.2128613 81.2734256,33.3476597 82.3655713,32.7737835 C84.5768918,31.6146239 86.7578045,30.4510768 89.5012609,30.5476004" id="Fill-7" fill="#000000"></path>
                <path d="M18.5758334,3.72551038 C18.2163788,5.03612067 17.9074046,6.36326589 17.4861552,7.65386022 C16.8708178,9.53536052 16.1701861,11.3890125 15.5200347,13.2591995 C15.4634619,13.4219379 15.5104608,13.6212273 15.5095905,13.8039817 C15.6914936,13.7047721 15.9395434,13.6525566 16.045726,13.5011315 C17.9570145,10.7554639 19.7769163,7.941916 21.7900357,5.27283116 C22.5063337,4.32337842 23.6247334,3.62456032 24.6700237,2.99536295 C25.3393228,2.59243296 25.7405542,3.34868817 25.9041799,3.855179 C26.0547505,4.32076764 26.0155847,4.91428439 25.871977,5.3955377 C24.9076293,8.63203151 23.5812159,11.7205813 22.0215488,14.7160133 C21.6177064,15.4922845 21.3113433,16.3373061 21.0815709,17.1840683 C20.7952257,18.2388224 20.0510765,18.0038524 19.4914415,17.703613 C19.2703726,17.586128 19.2164109,16.7498089 19.3869995,16.3782083 C20.3469955,14.288716 21.4532103,12.2653635 22.400151,10.1706497 C23.0294141,8.77649453 23.4837367,7.30140526 23.9972432,5.85677506 C24.0529456,5.70186893 23.9815769,5.50170932 23.969392,5.32156568 C23.7822668,5.37465148 23.5272542,5.36681915 23.4184605,5.48952569 C22.6673485,6.33628785 21.8883853,7.16825561 21.2277897,8.08376824 C19.5993649,10.3420908 18.0196797,12.6360939 16.4426056,14.9309673 C16.0239673,15.5392784 15.6453651,16.1815297 15.3172431,16.8429267 C14.8968641,17.6896888 14.2118987,17.9638205 13.3685296,17.7601798 C13.1004618,17.6957806 12.7288224,17.2676131 12.7375259,17.0169785 C12.7558032,16.4574019 12.9377064,15.8873821 13.1352758,15.3513025 C14.0561061,12.8493074 15.050916,10.3734201 15.9203957,7.85489008 C16.2955165,6.77054717 16.446087,5.60527016 16.6610635,4.47045222 C16.6984885,4.27464391 16.5470476,4.04315497 16.4835121,3.82820096 C16.286813,3.95177776 16.0335411,4.03358212 15.9047294,4.20763395 C15.5391824,4.70194116 15.1858203,5.21365354 14.8951234,5.755825 C13.6479119,8.07680617 12.4259406,10.4125817 11.1917844,12.7413953 C10.3614705,14.3078617 9.50069441,15.8595338 8.7043242,17.4425352 C8.42146047,18.0029821 8.12206008,18.1152456 7.55024017,17.8933295 C6.8974777,17.6409543 6.91575505,17.1623118 7.14378674,16.7184796 C8.00456284,15.0484523 8.92974484,13.4106245 9.81402039,11.7510403 C10.7835902,9.93045818 11.7670857,8.11596783 12.6818235,6.26753738 C13.4364169,4.74458385 14.0822166,3.16941478 14.8115698,1.63340737 C15.1144516,0.995507403 15.5330899,0.712673176 16.1484273,1.39321584 C16.3860329,1.65690436 16.7724683,1.97193818 17.0770907,1.95801403 C18.4122076,1.89535537 18.5845369,2.64290799 18.5758334,3.72551038" id="Fill-9" fill="#000000"></path>
                <path d="M12,42.5722793 C12.5509491,41.1517042 13.0881888,39.7268553 13.6597021,38.3148275 C13.8464935,37.8524141 14.1969417,37.4455586 14.3246111,36.9728883 C14.4000132,36.6968078 14.2834827,36.1822553 14.0761271,36.0497709 C13.335816,35.5753911 13.8499209,35.2249484 14.2020828,35.0941734 C15.4616399,34.6257768 16.0151595,33.5915434 16.5883865,32.5111541 C16.7349064,32.2350736 17.2164514,31.9974563 17.5420511,32.0000206 C17.7939626,32.00173 18.0433035,32.4043118 18.2935012,32.6299627 C18.4631558,32.7829609 18.6448062,33.0787004 18.8007514,33.0658793 C20.5778408,32.9222833 22.3480754,32.6889397 24.1260216,32.5778237 C24.7112444,32.5410699 25.3984313,32.6462028 25.8936857,32.9351043 C27.0315713,33.5958171 28.1668864,33.4573495 29.3570393,33.2581954 C30.4854996,33.0684435 31.6233852,32.9137359 32.7629844,32.8180052 C34.2547456,32.6923586 35.7525046,32.6214153 37.24855,32.57355 C37.4953203,32.5650026 37.7489454,32.7906535 38,32.9077527 C37.7737938,33.1145994 37.578434,33.4394 37.3162404,33.5069243 C35.7293699,33.9103608 34.1339309,34.2915741 32.527353,34.6103915 C31.3406275,34.8437351 30.1367651,35.0129733 28.9329027,35.1240893 C28.3768125,35.1753736 28.0383601,35.3266622 28.1771685,35.895918 C28.8669259,38.7174093 27.8755602,41.2816244 26.9904429,43.8612247 C26.6879779,44.74246 26.3589507,45.6194215 25.957092,46.4587746 C25.8319931,46.7203245 25.3487345,47.0588009 25.1670841,46.9912766 C24.8423412,46.8716132 24.4636172,46.5015115 24.4002109,46.1784204 C24.3153836,45.7476323 24.3573688,45.1433323 24.6101371,44.8210959 C25.7634458,43.3500912 25.9339573,41.5389006 26.3812286,39.8490829 C26.7205378,38.5661206 26.8490641,37.1694781 26.7505273,35.8463432 C26.6365674,34.3035404 25.8362774,33.8077922 24.0463354,33.5564991 C22.2264039,33.3017871 20.4116135,33.5180359 18.6439494,33.9556619 C18.0972845,34.0907106 17.4769312,34.4779071 17.175323,34.9369016 C16.6046665,35.804461 16.2310836,36.8036501 15.8000923,37.7583929 C15.7229765,37.9293405 15.7615344,38.153282 15.7461113,38.352436 C15.9731743,38.3592739 16.2130899,38.4191056 16.4247298,38.3652571 C17.4640786,38.1019977 18.4888611,37.7712139 19.5359214,37.548982 C19.8306749,37.4865861 20.1854073,37.7113823 20.5127208,37.8045487 C20.2453862,38.0233618 20.0071843,38.3037159 19.7047192,38.4498762 C18.0021751,39.2721345 16.2627867,40.0208853 14.5910888,40.8987016 C14.2620617,41.0713587 14.070986,41.6884798 14.000725,42.1295248 C13.8704851,42.9569116 14.2217901,43.1466635 15.0212233,42.8235724 C15.8926312,42.4722749 16.7717506,42.1261059 17.6740047,41.8696844 C17.8924993,41.8064337 18.4006064,42.06371 18.4443053,42.2508977 C18.5025705,42.4970623 18.3097812,42.9748611 18.0904297,43.0842676 C16.93198,43.6595065 15.7435407,44.1834611 14.541392,44.6629693 C13.2021487,45.1971808 12.2587661,44.5210828 12.2441998,43.0723012 C12.2424862,42.9363978 12.2441998,42.7996397 12.2441998,42.6620268 C12.1619431,42.632111 12.0813999,42.6021951 12,42.5722793" id="Fill-11" fill="#000000"></path>
                <g id="Group-15" transform="translate(65.000000, 0.000000)">
                    <mask id="mask-2" fill="white">
                        <use xlink:href="#path-1"></use>
                    </mask>
                    <g id="Clip-14"></g>
                    <path d="M10.4261471,4.18165714 C10.3079118,3.85851429 10.2002647,3.5628 10.0917353,3.26708571 C9.88173529,3.50965714 9.63291176,3.7308 9.46702941,3.99908571 C8.18938235,6.06394286 6.92408824,8.1348 5.67202941,10.2142286 C5.59879412,10.3359429 5.62085294,10.5733714 5.69673529,10.7010857 C5.7585,10.8048 6.03820588,10.9162286 6.10261765,10.8699429 C7.14291176,10.1173714 8.49555882,9.52937143 9.10702941,8.52051429 C9.86673529,7.26651429 10.0096765,5.66022857 10.4261471,4.18165714 M12.3717353,1.9848 C12.1193824,3.37851429 11.8449706,4.80051429 11.6155588,6.22765714 C11.5476176,6.64508571 11.6085,7.08051429 11.6093824,7.50822857 C12.0232059,7.3848 12.4396765,7.2708 12.8499706,7.13708571 C13.2099706,7.01965714 13.5540882,6.81908571 13.9211471,6.77365714 C14.1373235,6.74708571 14.3835,6.95108571 14.6164412,7.05222857 C14.4664412,7.25365714 14.3605588,7.53908571 14.1576176,7.64194286 C13.5161471,7.9668 12.8367353,8.21708571 12.1767353,8.5068 C10.1887941,9.37851429 10.1137941,11.3105143 9.56761765,12.9768 C9.13967647,14.2839429 8.77261765,15.6125143 8.28379412,16.8973714 C8.19555882,17.1288 7.65026471,17.2685143 7.3035,17.2933714 C7.19673529,17.3019429 6.89144118,16.7568 6.94614706,16.5253714 C7.27702941,15.1282286 7.69967647,13.7508 8.05614706,12.3588 C8.11702941,12.1239429 8.0085,11.8479429 7.9785,11.5916571 C7.70585294,11.6636571 7.39614706,11.6773714 7.16938235,11.8179429 C6.11761765,12.4676571 5.05438235,13.1079429 4.06702941,13.8433714 C3.57467647,14.2110857 3.21555882,14.7613714 2.83967647,15.2602286 C2.65967647,15.4993714 2.60320588,15.8225143 2.45408824,16.0873714 C2.12497059,16.6719429 1.7535,17.2436571 0.920558824,16.8973714 C0.421147059,16.6899429 0.470558824,15.7642286 0.891441176,15.0510857 C2.12938235,12.9528 3.35408824,10.8459429 4.53644118,8.71765714 C5.60408824,6.7968 6.51908824,4.81337143 6.93644118,2.64137143 C7.0335,2.13565714 7.38820588,1.85108571 7.94320588,2.19822857 C8.51585294,2.55651429 8.86614706,2.43137143 9.18467647,1.83394286 C9.43614706,1.3608 9.85879412,0.975085714 10.1940882,0.542228571 C10.6511471,-0.0492 11.7258529,0.00222857143 12.0293824,0.672514286 C12.2085,1.06765714 12.2552647,1.52022857 12.3717353,1.9848" id="Fill-13" fill="#000000" mask="url(#mask-2)"></path>
                </g>
                <path d="M64.0795468,30 C64.6500962,30.4706469 65.4263892,30.7954357 65.5456859,31.2788028 C65.7566162,32.1276632 65.0356493,32.5007887 64.1988435,32.5067248 C62.152646,32.520293 61.07206,33.880505 60.0934814,35.3560466 C59.2973056,36.5576803 58.5287929,37.7805142 57.7939945,39.0194604 C57.6150494,39.3205048 57.5026685,39.7479031 57.5744194,40.0718439 C57.6228297,40.2931751 58.1320018,40.6434043 58.2841483,40.5814993 C59.7433715,39.9870426 61.169745,39.3171128 62.6064921,38.6709273 C62.7560452,38.6030863 62.9194298,38.4724924 63.0603382,38.4903006 C64.2887483,38.6471829 64.5835321,37.7389616 65.1635907,36.9596382 C66.5311802,35.1228432 67.7561325,33.0986375 69.9613923,32.042862 C70.3668281,31.8495152 70.8535241,31.7519937 71.3047768,31.7469056 C71.5355899,31.7443616 71.9773335,32.0708464 71.9600441,32.2031363 C71.919414,32.5126609 71.7326888,32.9434512 71.4776705,33.063869 C69.0822276,34.1951176 67.5815098,36.1455462 66.4118836,38.3707309 C66.0833854,38.9948681 65.9710045,39.7623193 65.9035759,40.4763458 C65.8326895,41.2285328 66.2173781,41.6957877 67.0317077,41.2785656 C68.4978467,40.5263785 69.9302714,39.7088945 71.3756632,38.9185469 C71.4050551,38.9024347 71.42148,38.8591861 71.450872,38.8507059 C71.9669598,38.6929756 72.4839121,38.5377893 73,38.3834511 C72.7674579,38.786257 72.5971576,39.2441837 72.2902711,39.5825407 C70.9079856,41.104723 69.2421543,42.2317316 67.2625208,42.8880932 C65.9303745,43.3307557 64.463371,42.4106622 64.2654076,41.0004175 C64.2377446,40.7994385 64.2887483,40.5840434 64.2368802,40.3932406 C64.1625358,40.1235726 64.0916494,39.7317909 63.9006018,39.6461416 C63.6879425,39.5511642 63.3118986,39.6843022 63.0603382,39.8157441 C61.6668145,40.5475788 60.2949026,41.3192702 58.9048368,42.057041 C58.0152985,42.5285359 57.1491008,42.1732187 56.5621265,41.6118345 C56.0330716,41.1072671 55.9059947,40.3406638 56.0624635,39.4841712 C56.7047638,35.9496553 59.2160456,33.6964863 61.667679,31.4110927 C62.2754005,30.8454684 63.1346825,30.5401839 64.0795468,30" id="Fill-16" fill="#000000"></path>
                <g id="Group-20" transform="translate(0.000000, 28.000000)" fill="#000000">
                    <path d="M0.0220285714,9.18918 C0.268885714,8.22358 0.484028571,7.24948 0.772028571,6.29663 C1.0506,5.37098 1.35917143,4.44788 1.74317143,3.56133 C1.9626,3.05388 2.30545714,2.57108 2.69545714,2.17838 C2.87631429,1.99733 3.37431429,1.92678 3.59545714,2.04663 C3.76602857,2.13928 3.83802857,2.63823 3.7626,2.90258 C3.58002857,3.54263 3.26374286,4.14273 3.04345714,4.77428 C2.6406,5.92773 2.24717143,7.08628 1.8966,8.25673 C1.79288571,8.60353 1.78517143,9.00813 1.85974286,9.36003 C1.88974286,9.50198 2.3346,9.71873 2.4546,9.65413 C2.92688571,9.39913 3.3906,9.09313 3.7746,8.72168 C5.26088571,7.28518 6.75831429,5.85548 8.16488571,4.34418 C8.86002857,3.59703 9.36145714,2.67308 9.9606,1.83668 C10.1731714,1.54003 10.3771714,1.21958 10.6548857,0.99348 C10.8271714,0.85323 11.2608857,0.74783 11.3500286,0.84133 C11.6071714,1.10993 11.9380286,1.50773 11.9020286,1.81798 C11.7571714,3.07343 11.6191714,4.35608 11.2360286,5.55373 C10.3566,8.30518 9.34088571,11.01328 8.3706,13.73583 C8.08002857,14.54928 7.72088571,15.33893 7.46545714,16.16258 C7.2426,16.87658 6.77288571,17.05168 6.13345714,16.87913 C5.35688571,16.67003 5.52831429,16.01298 5.68945714,15.54123 C6.0666,14.43793 6.57402857,13.37883 6.99488571,12.28828 C7.75002857,10.33498 8.48545714,8.37403 9.21488571,6.41053 C9.27831429,6.23883 9.23717143,6.02973 9.24488571,5.83848 C9.02717143,5.87673 8.77088571,5.85548 8.60031429,5.96598 C8.29088571,6.16573 7.97631429,6.40288 7.76288571,6.69528 C6.52088571,8.40463 5.00631429,9.79268 3.2226,10.95378 C2.50774286,11.41873 1.9146,11.55813 1.26488571,11.14843 C0.580028571,10.71663 -0.135685714,10.21598 0.0220285714,9.18918" id="Fill-18"></path>
                </g>
                <path d="M79.3055754,13.9081731 C79.4042931,14.2465847 79.4586715,14.4317851 79.51305,14.6169855 C79.7071391,14.5151253 79.950587,14.4570397 80.0894611,14.3038285 C80.916013,13.3929793 81.6589058,12.3971063 82.5415093,11.5477099 C84.6162549,9.55428028 85.6703596,7.03976408 86.3513446,4.32236927 C86.4065596,4.10181245 86.2467708,3.73814623 86.0677403,3.5765168 C85.9472712,3.4670802 85.5273025,3.50327846 85.3917748,3.63291873 C84.7676779,4.22808544 84.0866928,4.80894121 83.6299142,5.52532999 C82.6636516,7.04313136 81.7777017,8.61733467 80.9486401,10.2159508 C80.3153407,11.4391152 79.8209154,12.7355179 79.3055754,13.9081731 M77.0425968,16.1625669 C77.5094146,14.376225 77.9569907,12.5839903 78.4489062,10.8043829 C78.7651376,9.66203323 79.0830422,8.51210718 79.5197427,7.41353214 C79.7749029,6.77206534 79.7138318,5.5514264 81.0866776,6.14070037 C81.2272249,6.20131141 81.6505399,5.68275032 81.8981708,5.39232243 C82.7105007,4.44022407 83.4600862,3.42835648 84.3192651,2.52087457 C84.873925,1.93328425 87.1251913,1.78175666 87.4958011,2.38534156 C87.8873257,3.02596655 88.0780684,3.96038669 87.9701482,4.70960645 C87.5970286,7.32261559 86.4182719,9.59384582 84.6806724,11.5763318 C82.9807196,13.5150432 81.145239,15.2980178 78.948351,16.6634498 C78.6496881,16.849492 78.2648562,16.9311485 77.9093051,16.9782904 C77.3395866,17.0532124 76.8501809,16.9690304 77.0425968,16.1625669" id="Fill-21" fill="#000000"></path>
                <path d="M52.3939064,34.1630267 C52.3939064,33.8236212 52.4302254,33.4774105 52.3800706,33.1448101 C52.3506696,32.9483121 52.1967463,32.6276206 52.0782772,32.6191142 C51.8854408,32.6038027 51.5654879,32.7501129 51.4919852,32.9117346 C50.9999495,33.9945999 50.550286,35.0961794 50.1300235,36.2062652 C50.111864,36.2539011 50.5744986,36.6128714 50.7128566,36.5618329 C52.3385632,35.9638327 52.3990949,35.8558013 52.3939064,34.1630267 M58,34.7048847 C57.7042598,34.8690584 57.5261238,35.0136672 57.3220458,35.0723614 C56.645821,35.2705607 55.967002,35.478117 55.275212,35.6048624 C54.5479677,35.7384129 54.2487685,36.019975 54.1008984,36.8263821 C53.6348048,39.3825568 53.8215881,42.1581968 51.8655518,44.2762916 C51.5680821,44.5978337 51.1322544,44.8343118 50.7137214,44.9891284 C50.5364502,45.0546277 50.2389805,44.8070913 49.996854,44.7024625 C50.0928398,44.5110684 50.1507772,44.2839474 50.2925942,44.1350853 C51.937325,42.4031812 52.1050841,40.243405 52.1292968,38.0436487 C52.1344852,37.5553811 51.8456628,37.285728 51.4037819,37.5715432 C49.7815343,38.6195323 47.960397,39.4616664 47.2582301,41.4853402 C47.0913358,41.968504 46.7013391,42.4040319 46.3286373,42.7774631 C46.1505013,42.9552469 45.6264704,43.0879468 45.512325,42.9807661 C45.2529037,42.7357817 44.919115,42.2347544 45.0176951,42.0059321 C45.8928095,39.9797065 46.8284556,37.9772987 47.8030148,35.9953064 C48.3322342,34.9192461 49.0006763,33.9095359 49.5463257,32.8411314 C49.7538627,32.4345253 49.8446601,31.9496602 49.8991386,31.4894637 C50.0072308,30.577577 50.9169347,29.9634146 52.1889636,30.0016934 C52.9845222,30.0255114 53.677177,30.6711475 53.7731628,31.4511848 C53.8899024,32.411558 54.0213425,33.3710804 54.1545121,34.3297523 C54.2522274,35.0315307 54.6889199,34.8231238 55.153284,34.7244495 C55.9445188,34.5568733 56.7521837,34.4556471 57.5572544,34.3586741 C57.6575639,34.3467651 57.7829509,34.5296528 58,34.7048847" id="Fill-23" fill="#000000"></path>
                <g id="Group-27" transform="translate(144.000000, 29.000000)">
                    <mask id="mask-4" fill="white">
                        <use xlink:href="#path-3"></use>
                    </mask>
                    <g id="Clip-26"></g>
                    <path d="M4.24201,14.9391667 C2.26321,14.9375 0.69411,13.4441667 0.74511,11.905 C0.77911,10.8866667 1.19646,9.88333333 1.39876,8.865 C1.47271,8.495 1.52626,8.06083333 1.39706,7.7275 C1.19901,7.21333333 1.17181,6.89583333 1.74471,6.62 C3.24921,5.89416667 4.04821,4.57666667 4.69761,3.13666667 C4.83786,2.82333333 5.10816,2.565 5.31811,2.2825 C5.58501,2.6025 5.99471,2.88583333 6.09076,3.25 C6.39676,4.40416667 6.51831,4.44166667 7.69046,3.88583333 C10.38751,2.60666667 13.10836,1.37333333 15.83431,0.153333333 C16.04426,0.06 16.37066,0.216666667 16.64266,0.256666667 C16.48541,0.4375 16.36556,0.693333333 16.16496,0.789166667 C14.19041,1.735 12.15636,2.56916667 10.23281,3.60416667 C8.24806,4.6725 6.32876,5.87166667 4.46726,7.13583333 C3.94026,7.49333333 3.68866,8.265 3.36821,8.87666667 C3.28236,9.03916667 3.33591,9.38666667 3.46341,9.5075 C3.57731,9.615 3.90201,9.58 4.10346,9.51583333 C5.96751,8.92083333 7.81881,8.28833333 9.69051,7.71833333 C9.98886,7.62833333 10.37051,7.80166667 10.71306,7.8525 C10.46741,8.06833333 10.25661,8.37583333 9.96846,8.48333333 C8.19196,9.14916667 6.39421,9.7575 4.61176,10.4083333 C3.38436,10.8566667 2.63466,11.7225 2.67546,12.5591667 C2.71031,13.2883333 3.16676,13.6025 3.78131,13.3325 C5.11326,12.7475 6.40271,12.0633333 7.68366,11.3725 C8.17241,11.1083333 8.56851,10.6808333 9.05046,10.4 C9.22046,10.3008333 9.57151,10.3425 9.74576,10.4566667 C9.86051,10.5333333 9.91321,10.9475 9.81716,11.0491667 C8.10866,12.8475 6.52001,14.8466667 4.24201,14.9391667" id="Fill-25" fill="#000000" mask="url(#mask-4)"></path>
                </g>
                <path d="M90.0276401,12.9141514 C90.3528076,11.370649 90.7022164,9.74009449 91.0374147,8.10702882 C91.3082483,6.78869031 91.5548406,5.46532956 91.827346,4.14615401 C91.9468806,3.56943322 92.0597279,2.98266796 92.2712121,2.43691767 C92.3506232,2.23016871 92.8496592,1.95980468 92.9006494,2.00500486 C93.2208015,2.29462081 93.6454418,2.63864438 93.7014475,3.01363845 C93.7800227,3.54264793 93.6003028,4.12271688 93.4749169,4.66679309 C92.9633424,6.89164627 92.4208393,9.10812904 91.9192957,11.3346563 C91.8683054,11.5614942 92.0196044,11.8335323 92.0772819,12.0846444 C92.2377759,11.9264438 92.4258548,11.7883322 92.5554202,11.6075314 C93.7390633,9.96023609 94.8967932,8.29285177 96.0938108,6.65476386 C97.0985699,5.28034364 98.1317499,3.9260124 99.1950224,2.59679237 C99.3287674,2.4293843 99.7249869,2.47123632 100,2.4168287 C99.9665638,2.64366663 99.9941487,2.90398617 99.8904963,3.09232024 C99.2401613,4.26919893 98.5672569,5.43435906 97.8910089,6.59700807 C96.2501252,9.41615988 94.560759,12.2018301 92.1759188,14.4777427 C91.934342,14.7087658 91.4119007,15.0553005 91.3433564,14.9925225 C90.856859,14.5497282 90.4422496,14.0240669 90.0393428,13.4975685 C89.9582599,13.3921014 90.0276401,13.1719598 90.0276401,12.9141514" id="Fill-28" fill="#000000"></path>
                <path d="M44.581919,17 C44.1605662,16.7071816 43.7741183,16.5698421 43.6361605,16.2968904 C43.5430806,16.1129072 43.7865843,15.7319842 43.9021032,15.4486673 C44.4181981,14.1746051 44.9716912,12.9169546 45.4570365,11.6316634 C46.0038811,10.1831194 46.5025235,8.71384501 46.9953485,7.24457058 C47.0593409,7.05281343 46.9670921,6.80404738 46.9471464,6.58205824 C46.7676351,6.613154 46.5806442,6.61920039 46.4111057,6.67966436 C45.7362763,6.91720138 45.0730818,7.19447187 44.393266,7.41214215 C43.6851937,7.63931392 43.2447262,7.14696446 43.0045468,6.59933366 C42.9447097,6.46372162 43.489061,5.85389931 43.8381107,5.74333662 C45.2010667,5.31317868 46.6945009,5.23630306 47.7208732,3.99679171 C47.776555,3.9285538 47.9095263,3.85858835 47.976843,3.88191017 C49.7312334,4.49518756 51.1997354,3.23321816 52.8344515,3.09501481 C53.7544468,3.01813919 54.6810907,3.00345508 55.6044103,3 C55.7357195,3 55.8686908,3.22198914 56,3.34118954 C55.8686908,3.46298124 55.7556652,3.64782823 55.6019171,3.69879072 C53.6223066,4.34489141 51.6244125,4.93225568 49.6655788,5.63968411 C49.2957523,5.77356861 48.8910208,6.33415597 48.822873,6.75394867 C48.4414116,9.11031589 47.6444147,11.286155 46.5390906,13.3730257 C46.0728599,14.2540721 45.8310184,15.2603653 45.4163141,16.1750987 C45.2775252,16.4808736 44.9185027,16.6778134 44.581919,17" id="Fill-30" fill="#000000"></path>
                <path d="M31.2436989,6.29995733 C31.125943,5.94032081 31.0160961,5.60300065 30.9062491,5.2665388 C30.54683,5.49227723 30.0222011,5.63561684 29.8561126,5.95662891 C28.9377924,7.73249514 28.0950468,9.54698582 27.2575739,11.3614765 C27.0624858,11.7837704 26.959669,12.2541304 26.8753066,12.7133321 C26.8445495,12.8781298 26.9930625,13.0746853 27.0598494,13.2566493 C27.2066049,13.1914169 27.3779661,13.1545091 27.4966008,13.0566605 C29.6487216,11.2893775 30.5740721,8.88865358 31.2436989,6.29995733 M25,13.0266193 C25.2908746,12.1554235 25.4780538,11.4035342 25.7865039,10.7022859 C26.6283707,8.7873717 27.5168126,6.89134052 28.3973455,4.99359271 C28.63813,4.47430848 28.8481573,3.91897477 29.2031825,3.48208936 C29.4246339,3.20828495 29.9070816,2.9696717 30.241895,3.00314622 C30.527497,3.03147082 30.781463,3.46148966 31.0266414,3.73357742 C31.2023964,3.92669966 31.2920315,4.24342012 31.5020588,4.34985193 C32.7797982,4.99445103 33.2200646,5.78753967 32.8993116,7.08446276 C32.1831097,9.98644619 30.6927067,12.4412444 28.3973455,14.421391 C27.7101432,15.0136325 26.3954953,15.2900119 25.7645346,14.5681639 C25.3963277,14.1475866 25.2460571,13.5433286 25,13.0266193" id="Fill-32" fill="#000000"></path>
                <path d="M139.121698,30.5936263 C138.871888,31.4658549 138.636919,32.3432908 138.368146,33.2094441 C137.897382,34.7299858 137.385396,36.2366414 136.939365,37.7649941 C136.853622,38.0592085 136.991306,38.4245898 137.025933,38.7578592 C137.306248,38.6710703 137.641801,38.658052 137.858633,38.4836063 C139.661717,37.0359672 141.439242,35.5518768 143.236554,34.0964268 C143.451737,33.9219811 143.743594,33.8516821 144,33.7319134 C143.933219,34.0729938 143.971144,34.5086741 143.782344,34.7351932 C143.112062,35.5423301 142.398083,36.3190908 141.637936,37.0316278 C140.331174,38.2579551 138.998855,39.4556421 137.635206,40.6099346 C136.78849,41.326811 136.048954,41.00656 135.467713,40.0492783 C134.652327,38.7031822 135.076921,37.3718403 135.438857,36.1160048 C136.095123,33.8421353 136.942663,31.629018 137.744034,29.4046182 C137.814112,29.2093432 138.152963,28.9715415 138.326099,29.0027855 C138.561893,29.0453121 138.865293,29.2874532 138.946089,29.5183117 C139.053269,29.8238087 138.972472,30.2022083 138.972472,30.5484961 C139.021939,30.5641181 139.071407,30.5780043 139.121698,30.5936263" id="Fill-34" fill="#000000"></path>
                <path d="M41.9164029,2 C42.2566084,2.30604998 42.8988239,2.60867082 42.979656,3.01588018 C43.130661,3.78057648 42.4120548,3.78572018 41.7831632,3.91259804 C40.1736272,4.23922281 39.0233242,5.30396811 38.0178084,6.47758833 C37.5381453,7.03653675 37.1943868,7.71807662 36.8639523,8.37904169 C36.3478704,9.41121025 36.6862993,10.1441871 37.7921891,10.5453955 C38.8092524,10.9148844 39.0117768,11.3658151 38.6120576,12.3542623 C38.009814,13.8442199 36.7129472,14.759798 35.5546498,15.7876801 C35.0838694,16.2051768 34.6113125,16.6475348 34.0623648,16.9458692 C33.8029915,17.0864636 33.3597473,16.9124352 33,16.8807157 C33.0977091,16.5446608 33.0932678,16.1185913 33.3108927,15.8871249 C34.1671801,14.9766905 35.1034113,14.1365533 35.9925644,13.253552 C37.0060746,12.2471019 36.9900859,11.85018 35.9445981,10.9165989 C34.6184186,9.73269131 34.4567544,8.92856 35.2961647,7.55433559 C36.6596513,5.32368561 38.4130862,3.4796702 40.890457,2.36605978 C41.1373946,2.25547029 41.4012093,2.18174396 41.9164029,2" id="Fill-36" fill="#000000"></path>
                <path d="M122.103435,12.9996714 C120.80187,13.0254825 119.829899,11.5258538 120.024966,10.24562 C120.462184,7.37627883 121.880622,5.00853459 123.552983,2.76038209 C123.891827,2.30524521 124.25001,1.74342218 124.914246,2.12800854 C125.394346,2.40590875 125.251409,3.46674765 124.775513,4.05007999 C123.312513,5.84137486 122.237123,7.83141571 121.95125,10.1879751 C121.914254,10.4968487 122.049624,10.828092 122.105117,11.1481505 C122.403603,11.0216757 122.753378,10.9580082 122.992166,10.7566811 C124.398833,9.57108825 125.771026,8.34247678 127.177693,7.15688392 C127.391257,6.97706614 127.723375,6.94523237 128,6.84456882 C127.994955,7.15172169 127.994114,7.45887456 127.984025,7.76602742 C127.981502,7.83055534 127.959641,7.91229069 127.917601,7.95444893 C126.191429,9.64594063 124.929381,11.8700027 122.569241,12.8301781 C122.359881,12.9153549 122.144635,12.9841847 122.103435,12.9996714" id="Fill-38" fill="#000000"></path>
            </g>
        </g>
    </g>
</svg>