<?xml version="1.0" encoding="UTF-8"?>
<svg width="1002px" height="1336px" viewBox="0 0 1002 1336" version="1.1" xmlns="http://www.w3.org/2000/svg" xmlns:xlink="http://www.w3.org/1999/xlink">
    <!-- Generator: Sketch 44.1 (41455) - http://www.bohemiancoding.com/sketch -->
    <title>Artboard Copy 78</title>
    <desc>Created with Sketch.</desc>
    <defs></defs>
    <g id="Page-1" stroke="none" stroke-width="1" fill="none" fill-rule="evenodd">
        <g id="Artboard-Copy-78">
            <rect id="Rectangle-6" fill="#FF7B7B" x="-24" y="334" width="230" height="230"></rect>
            <rect id="Rectangle-6-Copy" fill="#FF7B7B" x="873" y="939" width="230" height="230"></rect>
            <rect id="Rectangle-6-Copy-8" fill="#FF7B7B" x="910" y="-131" width="230" height="230"></rect>
            <rect id="Rectangle-6-Copy-7" fill="#7ED321" x="26" y="871" width="230" height="230"></rect>
            <rect id="Rectangle-6-Copy-6" fill="#4990E2" x="-74" y="781" width="230" height="230"></rect>
            <rect id="Rectangle-6-Copy-4" fill="#4990E2" x="91" y="-38" width="230" height="230"></rect>
            <rect id="Rectangle-6-Copy-2" fill="#7ED321" x="620" y="551" width="230" height="230"></rect>
            <rect id="Rectangle-6-Copy-5" fill="#FF7B7B" x="365" y="1262" width="230" height="230"></rect>
            <rect id="Rectangle-6-Copy-3" fill="#4A90E2" x="873" y="436" width="230" height="230"></rect>
            <g id="Group" transform="translate(661.000000, 643.000000)" fill="#FFFFFF">
                <path d="M7.464,0.4 L6.096,0.4 L6.096,13 L7.356,13 L7.356,2.92 L9.804,9.364 L10.596,9.364 L13.044,2.92 L13.044,13 L14.304,13 L14.304,0.4 L12.936,0.4 L10.2,7.6 L7.464,0.4 Z M21,13.18 C18.534,13.18 16.86,11.2 16.86,8.5 C16.86,5.8 18.534,3.82 21,3.82 C23.484,3.82 25.14,5.782 25.14,8.5 C25.14,11.2 23.484,13.18 21,13.18 Z M21,11.956 C22.62,11.956 23.826,10.678 23.826,8.5 C23.826,6.322 22.62,5.044 21,5.044 C19.398,5.044 18.174,6.322 18.174,8.5 C18.174,10.678 19.398,11.956 21,11.956 Z M31.764,13.18 C33.96,13.18 35.634,12.208 35.634,10.372 C35.634,8.896 34.608,8.392 33.006,8.122 L31.278,7.834 C30.234,7.672 29.388,7.492 29.388,6.538 C29.388,5.494 30.558,4.9 31.71,4.9 C33.276,4.9 34.086,5.782 34.086,6.844 L35.274,6.844 C35.274,4.99 33.852,3.82 31.71,3.82 C29.856,3.82 28.128,4.774 28.128,6.484 C28.128,7.942 29.226,8.5 30.648,8.716 L32.574,9.04 C33.906,9.256 34.374,9.598 34.374,10.372 C34.374,11.488 33.294,12.1 31.764,12.1 C30.18,12.1 29.154,11.236 29.154,9.94 L27.966,9.94 C27.966,11.866 29.46,13.18 31.764,13.18 Z M43.536,13.18 C45.318,13.18 46.344,11.848 46.344,10.156 L45.156,10.156 C45.156,11.434 44.472,12.1 43.572,12.1 C42.672,12.1 41.97,11.434 41.97,10.156 L41.97,5.08 L46.344,5.08 L46.344,4 L41.97,4 L41.97,0.4 L40.71,0.4 L40.71,4 L38.676,4 L38.676,5.08 L40.71,5.08 L40.71,10.156 C40.71,11.848 41.772,13.18 43.536,13.18 Z M61.932,9.598 L60.942,13 L59.556,13 L63.354,0.4 L65.046,0.4 L68.844,13 L67.458,13 L66.468,9.598 L61.932,9.598 Z M64.2,1.588 L62.166,8.518 L66.234,8.518 L64.2,1.588 Z M74.856,13.18 C72.624,13.18 71.058,11.2 71.058,8.5 C71.058,5.8 72.624,3.82 74.784,3.82 C75.864,3.82 76.908,4.342 77.628,5.242 L77.628,0.4 L78.942,0.4 L78.942,13 L77.952,13 L77.754,11.758 C76.962,12.658 76.026,13.18 74.856,13.18 Z M75.126,11.902 C76.116,11.902 77.628,11.218 77.628,9.58 L77.628,7.42 C77.628,5.782 76.116,5.098 75.126,5.098 C73.218,5.098 72.372,6.97 72.372,8.5 C72.372,10.03 73.218,11.902 75.126,11.902 Z M83.064,4 L81.696,4 L84.954,13 L86.646,13 L89.904,4 L88.536,4 L85.8,11.794 L83.064,4 Z M95.862,13.18 C94.026,13.18 92.91,12.028 92.91,10.552 C92.91,8.14 95.664,6.826 99.03,8.518 L99.03,7.078 C99.03,5.602 97.95,4.9 96.762,4.9 C95.286,4.9 94.458,5.944 94.458,6.826 L93.27,6.826 C93.27,5.062 95.016,3.82 96.798,3.82 C98.868,3.82 100.29,5.062 100.29,7.15 L100.29,13 L99.3,13 L99.102,11.758 C98.31,12.658 97.194,13.18 95.862,13.18 Z M96.042,12.118 C97.554,12.118 99.03,11.308 99.03,10.3 L99.03,9.49 C95.808,7.87 94.17,9.166 94.17,10.48 C94.17,11.578 95.088,12.118 96.042,12.118 Z M104.7,4 L103.71,4 L103.71,13 L105.024,13 L105.024,7.348 C105.024,5.8 106.392,5.098 107.454,5.098 C109.218,5.098 109.776,6.232 109.776,7.582 L109.776,13 L111.09,13 L111.09,7.384 C111.09,5.548 110.28,3.82 107.796,3.82 C106.662,3.82 105.69,4.342 104.898,5.242 L104.7,4 Z M118.362,13.18 C120.108,13.18 121.692,12.082 122.178,10.048 L120.864,10.048 C120.414,11.398 119.424,11.956 118.362,11.956 C116.724,11.956 115.536,10.57 115.536,8.5 C115.536,6.43 116.724,5.044 118.362,5.044 C119.424,5.044 120.414,5.602 120.864,6.952 L122.178,6.952 C121.692,4.918 120.126,3.82 118.362,3.82 C115.896,3.82 114.222,5.8 114.222,8.5 C114.222,11.2 115.896,13.18 118.362,13.18 Z M129.126,13.18 C126.678,13.18 125.022,11.146 125.022,8.554 C125.022,5.944 126.606,3.82 129.126,3.82 C131.718,3.82 132.978,6.016 132.978,7.294 C132.978,8.59 132.006,8.986 130.746,8.986 L126.318,8.986 C126.318,10.57 127.434,11.956 129.108,11.956 C130.548,11.956 131.322,11.2 131.556,10.48 L132.816,10.48 C132.348,12.406 130.728,13.18 129.126,13.18 Z M130.26,7.942 C131.124,7.942 131.7,7.816 131.7,7.096 C131.7,6.232 130.71,5.044 129.126,5.044 C127.272,5.044 126.318,6.664 126.318,7.942 L130.26,7.942 Z M139.656,13.18 C137.424,13.18 135.858,11.2 135.858,8.5 C135.858,5.8 137.424,3.82 139.584,3.82 C140.664,3.82 141.708,4.342 142.428,5.242 L142.428,0.4 L143.742,0.4 L143.742,13 L142.752,13 L142.554,11.758 C141.762,12.658 140.826,13.18 139.656,13.18 Z M139.926,11.902 C140.916,11.902 142.428,11.218 142.428,9.58 L142.428,7.42 C142.428,5.782 140.916,5.098 139.926,5.098 C138.018,5.098 137.172,6.97 137.172,8.5 C137.172,10.03 138.018,11.902 139.926,11.902 Z M0.156,34.4 L4.152,41.348 L4.152,47 L5.466,47 L5.466,41.348 L9.444,34.4 L8.076,34.4 L4.8,40.196 L1.524,34.4 L0.156,34.4 Z M15.726,47.18 C13.278,47.18 11.622,45.146 11.622,42.554 C11.622,39.944 13.206,37.82 15.726,37.82 C18.318,37.82 19.578,40.016 19.578,41.294 C19.578,42.59 18.606,42.986 17.346,42.986 L12.918,42.986 C12.918,44.57 14.034,45.956 15.708,45.956 C17.148,45.956 17.922,45.2 18.156,44.48 L19.416,44.48 C18.948,46.406 17.328,47.18 15.726,47.18 Z M16.86,41.942 C17.724,41.942 18.3,41.816 18.3,41.096 C18.3,40.232 17.31,39.044 15.726,39.044 C13.872,39.044 12.918,40.664 12.918,41.942 L16.86,41.942 Z M27.336,47.18 C29.118,47.18 30.144,45.848 30.144,44.156 L28.956,44.156 C28.956,45.434 28.272,46.1 27.372,46.1 C26.472,46.1 25.77,45.434 25.77,44.156 L25.77,39.08 L30.144,39.08 L30.144,38 L25.77,38 L25.77,34.4 L24.51,34.4 L24.51,38 L22.476,38 L22.476,39.08 L24.51,39.08 L24.51,44.156 C24.51,45.848 25.572,47.18 27.336,47.18 Z M45.732,43.598 L44.742,47 L43.356,47 L47.154,34.4 L48.846,34.4 L52.644,47 L51.258,47 L50.268,43.598 L45.732,43.598 Z M48,35.588 L45.966,42.518 L50.034,42.518 L48,35.588 Z M58.962,47.18 C60.708,47.18 62.292,46.082 62.778,44.048 L61.464,44.048 C61.014,45.398 60.024,45.956 58.962,45.956 C57.324,45.956 56.136,44.57 56.136,42.5 C56.136,40.43 57.324,39.044 58.962,39.044 C60.024,39.044 61.014,39.602 61.464,40.952 L62.778,40.952 C62.292,38.918 60.726,37.82 58.962,37.82 C56.496,37.82 54.822,39.8 54.822,42.5 C54.822,45.2 56.496,47.18 58.962,47.18 Z M69.762,47.18 C71.508,47.18 73.092,46.082 73.578,44.048 L72.264,44.048 C71.814,45.398 70.824,45.956 69.762,45.956 C68.124,45.956 66.936,44.57 66.936,42.5 C66.936,40.43 68.124,39.044 69.762,39.044 C70.824,39.044 71.814,39.602 72.264,40.952 L73.578,40.952 C73.092,38.918 71.526,37.82 69.762,37.82 C67.296,37.82 65.622,39.8 65.622,42.5 C65.622,45.2 67.296,47.18 69.762,47.18 Z M80.526,47.18 C78.078,47.18 76.422,45.146 76.422,42.554 C76.422,39.944 78.006,37.82 80.526,37.82 C83.118,37.82 84.378,40.016 84.378,41.294 C84.378,42.59 83.406,42.986 82.146,42.986 L77.718,42.986 C77.718,44.57 78.834,45.956 80.508,45.956 C81.948,45.956 82.722,45.2 82.956,44.48 L84.216,44.48 C83.748,46.406 82.128,47.18 80.526,47.18 Z M81.66,41.942 C82.524,41.942 83.1,41.816 83.1,41.096 C83.1,40.232 82.11,39.044 80.526,39.044 C78.672,39.044 77.718,40.664 77.718,41.942 L81.66,41.942 Z M88.248,38 L88.446,39.242 C89.238,38.342 90.174,37.82 91.344,37.82 C93.576,37.82 95.142,39.8 95.142,42.5 C95.142,45.2 93.576,47.18 91.416,47.18 C90.336,47.18 89.292,46.658 88.572,45.758 L88.572,50.6 L87.258,50.6 L87.258,38 L88.248,38 Z M91.074,45.902 C92.982,45.902 93.828,44.03 93.828,42.5 C93.828,40.97 92.982,39.098 91.074,39.098 C90.084,39.098 88.572,39.782 88.572,41.42 L88.572,43.58 C88.572,45.218 90.084,45.902 91.074,45.902 Z M102.936,47.18 C104.718,47.18 105.744,45.848 105.744,44.156 L104.556,44.156 C104.556,45.434 103.872,46.1 102.972,46.1 C102.072,46.1 101.37,45.434 101.37,44.156 L101.37,39.08 L105.744,39.08 L105.744,38 L101.37,38 L101.37,34.4 L100.11,34.4 L100.11,38 L98.076,38 L98.076,39.08 L100.11,39.08 L100.11,44.156 C100.11,45.848 101.172,47.18 102.936,47.18 Z M112.062,47.18 C110.226,47.18 109.11,46.028 109.11,44.552 C109.11,42.14 111.864,40.826 115.23,42.518 L115.23,41.078 C115.23,39.602 114.15,38.9 112.962,38.9 C111.486,38.9 110.658,39.944 110.658,40.826 L109.47,40.826 C109.47,39.062 111.216,37.82 112.998,37.82 C115.068,37.82 116.49,39.062 116.49,41.15 L116.49,47 L115.5,47 L115.302,45.758 C114.51,46.658 113.394,47.18 112.062,47.18 Z M112.242,46.118 C113.754,46.118 115.23,45.308 115.23,44.3 L115.23,43.49 C112.008,41.87 110.37,43.166 110.37,44.48 C110.37,45.578 111.288,46.118 112.242,46.118 Z M123.744,47.18 C122.574,47.18 121.638,46.658 120.846,45.758 L120.648,47 L119.658,47 L119.658,34.4 L120.972,34.4 L120.972,39.242 C121.692,38.342 122.736,37.82 123.816,37.82 C125.976,37.82 127.542,39.8 127.542,42.5 C127.542,45.2 125.976,47.18 123.744,47.18 Z M123.474,45.902 C125.382,45.902 126.228,44.03 126.228,42.5 C126.228,40.97 125.382,39.098 123.474,39.098 C122.484,39.098 120.972,39.782 120.972,41.42 L120.972,43.58 C120.972,45.218 122.484,45.902 123.474,45.902 Z M133.752,45.848 L130.476,45.848 L130.476,47 L138.324,47 L138.324,45.812 L135.03,45.812 L135.03,34.4 L131.016,34.4 L131.016,35.552 L133.752,35.552 L133.752,45.848 Z M145.326,47.18 C142.878,47.18 141.222,45.146 141.222,42.554 C141.222,39.944 142.806,37.82 145.326,37.82 C147.918,37.82 149.178,40.016 149.178,41.294 C149.178,42.59 148.206,42.986 146.946,42.986 L142.518,42.986 C142.518,44.57 143.634,45.956 145.308,45.956 C146.748,45.956 147.522,45.2 147.756,44.48 L149.016,44.48 C148.548,46.406 146.928,47.18 145.326,47.18 Z M146.46,41.942 C147.324,41.942 147.9,41.816 147.9,41.096 C147.9,40.232 146.91,39.044 145.326,39.044 C143.472,39.044 142.518,40.664 142.518,41.942 L146.46,41.942 Z" id="Most-Advanced-Yet-Ac"></path>
            </g>
        </g>
    </g>
</svg>